<mxfile host="app.diagrams.net" agent="Mozilla/5.0 (Windows NT 10.0; Win64; x64) AppleWebKit/537.36 (KHTML, like Gecko) Chrome/140.0.0.0 Safari/537.36" version="28.2.5">
  <diagram name="Page-1" id="EWoyyd5bHbAN9S-ePLNa">
    <mxGraphModel dx="1117" dy="517" grid="1" gridSize="10" guides="1" tooltips="1" connect="1" arrows="1" fold="1" page="1" pageScale="1" pageWidth="850" pageHeight="1100" math="0" shadow="0">
      <root>
        <mxCell id="0" />
        <mxCell id="1" parent="0" />
        <mxCell id="Fw9Gq_leVeL55fq2eISz-244" value="" style="rounded=1;whiteSpace=wrap;html=1;fillColor=#FFF2CC;" vertex="1" parent="1">
          <mxGeometry x="810" y="320" width="130" height="330" as="geometry" />
        </mxCell>
        <mxCell id="Fw9Gq_leVeL55fq2eISz-243" value="" style="rounded=1;whiteSpace=wrap;html=1;fillColor=#97D077;" vertex="1" parent="1">
          <mxGeometry x="725" y="330" width="130" height="310" as="geometry" />
        </mxCell>
        <mxCell id="Fw9Gq_leVeL55fq2eISz-241" value="" style="rounded=1;whiteSpace=wrap;html=1;fillColor=#B9E0A5;" vertex="1" parent="1">
          <mxGeometry x="650" y="340" width="130" height="290" as="geometry" />
        </mxCell>
        <mxCell id="Fw9Gq_leVeL55fq2eISz-240" value="" style="rounded=1;whiteSpace=wrap;html=1;fillColor=#D5E8D4;" vertex="1" parent="1">
          <mxGeometry x="570" y="350" width="130" height="270" as="geometry" />
        </mxCell>
        <mxCell id="Fw9Gq_leVeL55fq2eISz-8" value="" style="ellipse;whiteSpace=wrap;html=1;aspect=fixed;fillColor=#FF0000;" vertex="1" parent="1">
          <mxGeometry x="660" y="370" width="20" height="20" as="geometry" />
        </mxCell>
        <mxCell id="Fw9Gq_leVeL55fq2eISz-9" value="" style="ellipse;whiteSpace=wrap;html=1;aspect=fixed;fillColor=#FF0000;" vertex="1" parent="1">
          <mxGeometry x="660" y="440" width="20" height="20" as="geometry" />
        </mxCell>
        <mxCell id="Fw9Gq_leVeL55fq2eISz-10" value="" style="ellipse;whiteSpace=wrap;html=1;aspect=fixed;fillColor=#FF0000;" vertex="1" parent="1">
          <mxGeometry x="660" y="500" width="20" height="20" as="geometry" />
        </mxCell>
        <mxCell id="Fw9Gq_leVeL55fq2eISz-11" value="" style="ellipse;whiteSpace=wrap;html=1;aspect=fixed;fillColor=#FF0000;" vertex="1" parent="1">
          <mxGeometry x="660" y="580" width="20" height="20" as="geometry" />
        </mxCell>
        <mxCell id="Fw9Gq_leVeL55fq2eISz-13" value="" style="ellipse;whiteSpace=wrap;html=1;aspect=fixed;fillColor=#FF0000;" vertex="1" parent="1">
          <mxGeometry x="740" y="370" width="20" height="20" as="geometry" />
        </mxCell>
        <mxCell id="Fw9Gq_leVeL55fq2eISz-15" value="" style="ellipse;whiteSpace=wrap;html=1;aspect=fixed;fillColor=#FF0000;" vertex="1" parent="1">
          <mxGeometry x="740" y="440" width="20" height="20" as="geometry" />
        </mxCell>
        <mxCell id="Fw9Gq_leVeL55fq2eISz-17" value="" style="ellipse;whiteSpace=wrap;html=1;aspect=fixed;fillColor=#FF0000;" vertex="1" parent="1">
          <mxGeometry x="740" y="500" width="20" height="20" as="geometry" />
        </mxCell>
        <mxCell id="Fw9Gq_leVeL55fq2eISz-19" value="" style="ellipse;whiteSpace=wrap;html=1;aspect=fixed;fillColor=#FF0000;" vertex="1" parent="1">
          <mxGeometry x="740" y="580" width="20" height="20" as="geometry" />
        </mxCell>
        <mxCell id="Fw9Gq_leVeL55fq2eISz-43" value="" style="endArrow=none;html=1;rounded=0;entryX=0;entryY=0.5;entryDx=0;entryDy=0;exitX=1;exitY=0.5;exitDx=0;exitDy=0;" edge="1" parent="1" source="Fw9Gq_leVeL55fq2eISz-8" target="Fw9Gq_leVeL55fq2eISz-13">
          <mxGeometry width="50" height="50" relative="1" as="geometry">
            <mxPoint x="590" y="440" as="sourcePoint" />
            <mxPoint x="640" y="390" as="targetPoint" />
          </mxGeometry>
        </mxCell>
        <mxCell id="Fw9Gq_leVeL55fq2eISz-44" value="" style="endArrow=none;html=1;rounded=0;entryX=0;entryY=0.5;entryDx=0;entryDy=0;" edge="1" parent="1" target="Fw9Gq_leVeL55fq2eISz-15">
          <mxGeometry width="50" height="50" relative="1" as="geometry">
            <mxPoint x="680" y="450" as="sourcePoint" />
            <mxPoint x="760" y="440" as="targetPoint" />
            <Array as="points">
              <mxPoint x="680" y="450" />
            </Array>
          </mxGeometry>
        </mxCell>
        <mxCell id="Fw9Gq_leVeL55fq2eISz-45" value="" style="endArrow=none;html=1;rounded=0;entryX=0;entryY=0.5;entryDx=0;entryDy=0;exitX=1;exitY=0.5;exitDx=0;exitDy=0;" edge="1" parent="1">
          <mxGeometry width="50" height="50" relative="1" as="geometry">
            <mxPoint x="680" y="510" as="sourcePoint" />
            <mxPoint x="740" y="510" as="targetPoint" />
          </mxGeometry>
        </mxCell>
        <mxCell id="Fw9Gq_leVeL55fq2eISz-46" value="" style="endArrow=none;html=1;rounded=0;entryX=0;entryY=0.5;entryDx=0;entryDy=0;exitX=1;exitY=0.5;exitDx=0;exitDy=0;" edge="1" parent="1">
          <mxGeometry width="50" height="50" relative="1" as="geometry">
            <mxPoint x="680" y="590" as="sourcePoint" />
            <mxPoint x="740" y="590" as="targetPoint" />
          </mxGeometry>
        </mxCell>
        <mxCell id="Fw9Gq_leVeL55fq2eISz-47" value="" style="endArrow=none;html=1;rounded=0;entryX=0;entryY=0.5;entryDx=0;entryDy=0;exitX=1;exitY=0.5;exitDx=0;exitDy=0;" edge="1" parent="1" source="Fw9Gq_leVeL55fq2eISz-11" target="Fw9Gq_leVeL55fq2eISz-17">
          <mxGeometry width="50" height="50" relative="1" as="geometry">
            <mxPoint x="680" y="550" as="sourcePoint" />
            <mxPoint x="740" y="550" as="targetPoint" />
          </mxGeometry>
        </mxCell>
        <mxCell id="Fw9Gq_leVeL55fq2eISz-48" value="" style="endArrow=none;html=1;rounded=0;entryX=0;entryY=0.5;entryDx=0;entryDy=0;" edge="1" parent="1" target="Fw9Gq_leVeL55fq2eISz-19">
          <mxGeometry width="50" height="50" relative="1" as="geometry">
            <mxPoint x="680" y="510" as="sourcePoint" />
            <mxPoint x="750" y="530" as="targetPoint" />
          </mxGeometry>
        </mxCell>
        <mxCell id="Fw9Gq_leVeL55fq2eISz-49" value="" style="endArrow=none;html=1;rounded=0;entryX=0;entryY=0.5;entryDx=0;entryDy=0;" edge="1" parent="1" target="Fw9Gq_leVeL55fq2eISz-15">
          <mxGeometry width="50" height="50" relative="1" as="geometry">
            <mxPoint x="680" y="590" as="sourcePoint" />
            <mxPoint x="750" y="480" as="targetPoint" />
          </mxGeometry>
        </mxCell>
        <mxCell id="Fw9Gq_leVeL55fq2eISz-50" value="" style="endArrow=none;html=1;rounded=0;entryX=0;entryY=0.5;entryDx=0;entryDy=0;" edge="1" parent="1" target="Fw9Gq_leVeL55fq2eISz-15">
          <mxGeometry width="50" height="50" relative="1" as="geometry">
            <mxPoint x="680" y="510" as="sourcePoint" />
            <mxPoint x="750" y="470" as="targetPoint" />
          </mxGeometry>
        </mxCell>
        <mxCell id="Fw9Gq_leVeL55fq2eISz-51" value="" style="endArrow=none;html=1;rounded=0;exitX=1;exitY=0.5;exitDx=0;exitDy=0;" edge="1" parent="1" source="Fw9Gq_leVeL55fq2eISz-9">
          <mxGeometry width="50" height="50" relative="1" as="geometry">
            <mxPoint x="680" y="470" as="sourcePoint" />
            <mxPoint x="740" y="510" as="targetPoint" />
          </mxGeometry>
        </mxCell>
        <mxCell id="Fw9Gq_leVeL55fq2eISz-52" value="" style="endArrow=none;html=1;rounded=0;entryX=0;entryY=0.5;entryDx=0;entryDy=0;" edge="1" parent="1" target="Fw9Gq_leVeL55fq2eISz-19">
          <mxGeometry width="50" height="50" relative="1" as="geometry">
            <mxPoint x="680" y="450" as="sourcePoint" />
            <mxPoint x="780" y="530" as="targetPoint" />
          </mxGeometry>
        </mxCell>
        <mxCell id="Fw9Gq_leVeL55fq2eISz-53" value="" style="endArrow=none;html=1;rounded=0;entryX=0;entryY=0.5;entryDx=0;entryDy=0;" edge="1" parent="1" target="Fw9Gq_leVeL55fq2eISz-13">
          <mxGeometry width="50" height="50" relative="1" as="geometry">
            <mxPoint x="680" y="450" as="sourcePoint" />
            <mxPoint x="770" y="400" as="targetPoint" />
          </mxGeometry>
        </mxCell>
        <mxCell id="Fw9Gq_leVeL55fq2eISz-54" value="" style="endArrow=none;html=1;rounded=0;entryX=0;entryY=0.5;entryDx=0;entryDy=0;exitX=1;exitY=0.5;exitDx=0;exitDy=0;" edge="1" parent="1" source="Fw9Gq_leVeL55fq2eISz-10" target="Fw9Gq_leVeL55fq2eISz-13">
          <mxGeometry width="50" height="50" relative="1" as="geometry">
            <mxPoint x="760" y="420" as="sourcePoint" />
            <mxPoint x="820" y="420" as="targetPoint" />
          </mxGeometry>
        </mxCell>
        <mxCell id="Fw9Gq_leVeL55fq2eISz-55" value="" style="endArrow=none;html=1;rounded=0;entryX=0;entryY=0.5;entryDx=0;entryDy=0;" edge="1" parent="1" target="Fw9Gq_leVeL55fq2eISz-13">
          <mxGeometry width="50" height="50" relative="1" as="geometry">
            <mxPoint x="680" y="590" as="sourcePoint" />
            <mxPoint x="840" y="460" as="targetPoint" />
          </mxGeometry>
        </mxCell>
        <mxCell id="Fw9Gq_leVeL55fq2eISz-56" value="" style="endArrow=none;html=1;rounded=0;entryX=0;entryY=0.5;entryDx=0;entryDy=0;exitX=1;exitY=0.5;exitDx=0;exitDy=0;" edge="1" parent="1" source="Fw9Gq_leVeL55fq2eISz-8" target="Fw9Gq_leVeL55fq2eISz-15">
          <mxGeometry width="50" height="50" relative="1" as="geometry">
            <mxPoint x="670" y="410" as="sourcePoint" />
            <mxPoint x="730" y="410" as="targetPoint" />
          </mxGeometry>
        </mxCell>
        <mxCell id="Fw9Gq_leVeL55fq2eISz-57" value="" style="endArrow=none;html=1;rounded=0;entryX=0;entryY=0.5;entryDx=0;entryDy=0;" edge="1" parent="1" source="Fw9Gq_leVeL55fq2eISz-241" target="Fw9Gq_leVeL55fq2eISz-17">
          <mxGeometry width="50" height="50" relative="1" as="geometry">
            <mxPoint x="680" y="380" as="sourcePoint" />
            <mxPoint x="800" y="470" as="targetPoint" />
          </mxGeometry>
        </mxCell>
        <mxCell id="Fw9Gq_leVeL55fq2eISz-58" value="" style="endArrow=none;html=1;rounded=0;exitX=1;exitY=0.5;exitDx=0;exitDy=0;" edge="1" parent="1" source="Fw9Gq_leVeL55fq2eISz-8">
          <mxGeometry width="50" height="50" relative="1" as="geometry">
            <mxPoint x="770" y="380" as="sourcePoint" />
            <mxPoint x="740" y="590" as="targetPoint" />
          </mxGeometry>
        </mxCell>
        <mxCell id="Fw9Gq_leVeL55fq2eISz-107" value="" style="ellipse;whiteSpace=wrap;html=1;aspect=fixed;fillColor=#FF0000;" vertex="1" parent="1">
          <mxGeometry x="740" y="370" width="20" height="20" as="geometry" />
        </mxCell>
        <mxCell id="Fw9Gq_leVeL55fq2eISz-108" value="" style="ellipse;whiteSpace=wrap;html=1;aspect=fixed;fillColor=#FF0000;" vertex="1" parent="1">
          <mxGeometry x="740" y="440" width="20" height="20" as="geometry" />
        </mxCell>
        <mxCell id="Fw9Gq_leVeL55fq2eISz-109" value="" style="ellipse;whiteSpace=wrap;html=1;aspect=fixed;fillColor=#FF0000;" vertex="1" parent="1">
          <mxGeometry x="740" y="500" width="20" height="20" as="geometry" />
        </mxCell>
        <mxCell id="Fw9Gq_leVeL55fq2eISz-110" value="" style="ellipse;whiteSpace=wrap;html=1;aspect=fixed;fillColor=#FF0000;" vertex="1" parent="1">
          <mxGeometry x="740" y="580" width="20" height="20" as="geometry" />
        </mxCell>
        <mxCell id="Fw9Gq_leVeL55fq2eISz-111" value="" style="ellipse;whiteSpace=wrap;html=1;aspect=fixed;fillColor=#FF0000;" vertex="1" parent="1">
          <mxGeometry x="820" y="370" width="20" height="20" as="geometry" />
        </mxCell>
        <mxCell id="Fw9Gq_leVeL55fq2eISz-112" value="" style="ellipse;whiteSpace=wrap;html=1;aspect=fixed;fillColor=#FF0000;" vertex="1" parent="1">
          <mxGeometry x="820" y="440" width="20" height="20" as="geometry" />
        </mxCell>
        <mxCell id="Fw9Gq_leVeL55fq2eISz-113" value="" style="ellipse;whiteSpace=wrap;html=1;aspect=fixed;fillColor=#FF0000;" vertex="1" parent="1">
          <mxGeometry x="820" y="500" width="20" height="20" as="geometry" />
        </mxCell>
        <mxCell id="Fw9Gq_leVeL55fq2eISz-114" value="" style="ellipse;whiteSpace=wrap;html=1;aspect=fixed;fillColor=#FF0000;" vertex="1" parent="1">
          <mxGeometry x="820" y="580" width="20" height="20" as="geometry" />
        </mxCell>
        <mxCell id="Fw9Gq_leVeL55fq2eISz-115" value="" style="endArrow=none;html=1;rounded=0;entryX=0;entryY=0.5;entryDx=0;entryDy=0;exitX=1;exitY=0.5;exitDx=0;exitDy=0;" edge="1" parent="1" source="Fw9Gq_leVeL55fq2eISz-107" target="Fw9Gq_leVeL55fq2eISz-111">
          <mxGeometry width="50" height="50" relative="1" as="geometry">
            <mxPoint x="670" y="440" as="sourcePoint" />
            <mxPoint x="720" y="390" as="targetPoint" />
          </mxGeometry>
        </mxCell>
        <mxCell id="Fw9Gq_leVeL55fq2eISz-116" value="" style="endArrow=none;html=1;rounded=0;entryX=0;entryY=0.5;entryDx=0;entryDy=0;" edge="1" parent="1" target="Fw9Gq_leVeL55fq2eISz-112">
          <mxGeometry width="50" height="50" relative="1" as="geometry">
            <mxPoint x="760" y="450" as="sourcePoint" />
            <mxPoint x="840" y="440" as="targetPoint" />
            <Array as="points">
              <mxPoint x="760" y="450" />
            </Array>
          </mxGeometry>
        </mxCell>
        <mxCell id="Fw9Gq_leVeL55fq2eISz-117" value="" style="endArrow=none;html=1;rounded=0;entryX=0;entryY=0.5;entryDx=0;entryDy=0;exitX=1;exitY=0.5;exitDx=0;exitDy=0;" edge="1" parent="1">
          <mxGeometry width="50" height="50" relative="1" as="geometry">
            <mxPoint x="760" y="510" as="sourcePoint" />
            <mxPoint x="820" y="510" as="targetPoint" />
          </mxGeometry>
        </mxCell>
        <mxCell id="Fw9Gq_leVeL55fq2eISz-118" value="" style="endArrow=none;html=1;rounded=0;entryX=0;entryY=0.5;entryDx=0;entryDy=0;exitX=1;exitY=0.5;exitDx=0;exitDy=0;" edge="1" parent="1">
          <mxGeometry width="50" height="50" relative="1" as="geometry">
            <mxPoint x="760" y="590" as="sourcePoint" />
            <mxPoint x="820" y="590" as="targetPoint" />
          </mxGeometry>
        </mxCell>
        <mxCell id="Fw9Gq_leVeL55fq2eISz-119" value="" style="endArrow=none;html=1;rounded=0;entryX=0;entryY=0.5;entryDx=0;entryDy=0;exitX=1;exitY=0.5;exitDx=0;exitDy=0;" edge="1" parent="1" source="Fw9Gq_leVeL55fq2eISz-110" target="Fw9Gq_leVeL55fq2eISz-113">
          <mxGeometry width="50" height="50" relative="1" as="geometry">
            <mxPoint x="760" y="550" as="sourcePoint" />
            <mxPoint x="820" y="550" as="targetPoint" />
          </mxGeometry>
        </mxCell>
        <mxCell id="Fw9Gq_leVeL55fq2eISz-120" value="" style="endArrow=none;html=1;rounded=0;entryX=0;entryY=0.5;entryDx=0;entryDy=0;" edge="1" parent="1" target="Fw9Gq_leVeL55fq2eISz-114">
          <mxGeometry width="50" height="50" relative="1" as="geometry">
            <mxPoint x="760" y="510" as="sourcePoint" />
            <mxPoint x="830" y="530" as="targetPoint" />
          </mxGeometry>
        </mxCell>
        <mxCell id="Fw9Gq_leVeL55fq2eISz-121" value="" style="endArrow=none;html=1;rounded=0;entryX=0;entryY=0.5;entryDx=0;entryDy=0;" edge="1" parent="1" target="Fw9Gq_leVeL55fq2eISz-112">
          <mxGeometry width="50" height="50" relative="1" as="geometry">
            <mxPoint x="760" y="590" as="sourcePoint" />
            <mxPoint x="830" y="480" as="targetPoint" />
          </mxGeometry>
        </mxCell>
        <mxCell id="Fw9Gq_leVeL55fq2eISz-122" value="" style="endArrow=none;html=1;rounded=0;entryX=0;entryY=0.5;entryDx=0;entryDy=0;" edge="1" parent="1" target="Fw9Gq_leVeL55fq2eISz-112">
          <mxGeometry width="50" height="50" relative="1" as="geometry">
            <mxPoint x="760" y="510" as="sourcePoint" />
            <mxPoint x="830" y="470" as="targetPoint" />
          </mxGeometry>
        </mxCell>
        <mxCell id="Fw9Gq_leVeL55fq2eISz-123" value="" style="endArrow=none;html=1;rounded=0;exitX=1;exitY=0.5;exitDx=0;exitDy=0;" edge="1" parent="1" source="Fw9Gq_leVeL55fq2eISz-108">
          <mxGeometry width="50" height="50" relative="1" as="geometry">
            <mxPoint x="760" y="470" as="sourcePoint" />
            <mxPoint x="820" y="510" as="targetPoint" />
          </mxGeometry>
        </mxCell>
        <mxCell id="Fw9Gq_leVeL55fq2eISz-124" value="" style="endArrow=none;html=1;rounded=0;entryX=0;entryY=0.5;entryDx=0;entryDy=0;" edge="1" parent="1" target="Fw9Gq_leVeL55fq2eISz-114">
          <mxGeometry width="50" height="50" relative="1" as="geometry">
            <mxPoint x="760" y="450" as="sourcePoint" />
            <mxPoint x="860" y="530" as="targetPoint" />
          </mxGeometry>
        </mxCell>
        <mxCell id="Fw9Gq_leVeL55fq2eISz-125" value="" style="endArrow=none;html=1;rounded=0;entryX=0;entryY=0.5;entryDx=0;entryDy=0;" edge="1" parent="1" target="Fw9Gq_leVeL55fq2eISz-111">
          <mxGeometry width="50" height="50" relative="1" as="geometry">
            <mxPoint x="760" y="450" as="sourcePoint" />
            <mxPoint x="850" y="400" as="targetPoint" />
          </mxGeometry>
        </mxCell>
        <mxCell id="Fw9Gq_leVeL55fq2eISz-126" value="" style="endArrow=none;html=1;rounded=0;entryX=0;entryY=0.5;entryDx=0;entryDy=0;exitX=1;exitY=0.5;exitDx=0;exitDy=0;" edge="1" parent="1" source="Fw9Gq_leVeL55fq2eISz-109" target="Fw9Gq_leVeL55fq2eISz-111">
          <mxGeometry width="50" height="50" relative="1" as="geometry">
            <mxPoint x="840" y="420" as="sourcePoint" />
            <mxPoint x="900" y="420" as="targetPoint" />
          </mxGeometry>
        </mxCell>
        <mxCell id="Fw9Gq_leVeL55fq2eISz-127" value="" style="endArrow=none;html=1;rounded=0;entryX=0;entryY=0.5;entryDx=0;entryDy=0;" edge="1" parent="1" target="Fw9Gq_leVeL55fq2eISz-111">
          <mxGeometry width="50" height="50" relative="1" as="geometry">
            <mxPoint x="760" y="590" as="sourcePoint" />
            <mxPoint x="920" y="460" as="targetPoint" />
          </mxGeometry>
        </mxCell>
        <mxCell id="Fw9Gq_leVeL55fq2eISz-128" value="" style="endArrow=none;html=1;rounded=0;entryX=0;entryY=0.5;entryDx=0;entryDy=0;exitX=1;exitY=0.5;exitDx=0;exitDy=0;" edge="1" parent="1" source="Fw9Gq_leVeL55fq2eISz-107" target="Fw9Gq_leVeL55fq2eISz-112">
          <mxGeometry width="50" height="50" relative="1" as="geometry">
            <mxPoint x="750" y="410" as="sourcePoint" />
            <mxPoint x="810" y="410" as="targetPoint" />
          </mxGeometry>
        </mxCell>
        <mxCell id="Fw9Gq_leVeL55fq2eISz-129" value="" style="endArrow=none;html=1;rounded=0;entryX=0;entryY=0.5;entryDx=0;entryDy=0;" edge="1" parent="1" target="Fw9Gq_leVeL55fq2eISz-113">
          <mxGeometry width="50" height="50" relative="1" as="geometry">
            <mxPoint x="760" y="380" as="sourcePoint" />
            <mxPoint x="880" y="470" as="targetPoint" />
          </mxGeometry>
        </mxCell>
        <mxCell id="Fw9Gq_leVeL55fq2eISz-130" value="" style="endArrow=none;html=1;rounded=0;exitX=1;exitY=0.5;exitDx=0;exitDy=0;" edge="1" parent="1" source="Fw9Gq_leVeL55fq2eISz-107">
          <mxGeometry width="50" height="50" relative="1" as="geometry">
            <mxPoint x="850" y="380" as="sourcePoint" />
            <mxPoint x="820" y="590" as="targetPoint" />
          </mxGeometry>
        </mxCell>
        <mxCell id="Fw9Gq_leVeL55fq2eISz-179" value="" style="ellipse;whiteSpace=wrap;html=1;aspect=fixed;fillColor=#FF0000;" vertex="1" parent="1">
          <mxGeometry x="820" y="370" width="20" height="20" as="geometry" />
        </mxCell>
        <mxCell id="Fw9Gq_leVeL55fq2eISz-180" value="" style="ellipse;whiteSpace=wrap;html=1;aspect=fixed;fillColor=#FF0000;" vertex="1" parent="1">
          <mxGeometry x="820" y="440" width="20" height="20" as="geometry" />
        </mxCell>
        <mxCell id="Fw9Gq_leVeL55fq2eISz-181" value="" style="ellipse;whiteSpace=wrap;html=1;aspect=fixed;fillColor=#FF0000;" vertex="1" parent="1">
          <mxGeometry x="820" y="500" width="20" height="20" as="geometry" />
        </mxCell>
        <mxCell id="Fw9Gq_leVeL55fq2eISz-182" value="" style="ellipse;whiteSpace=wrap;html=1;aspect=fixed;fillColor=#FF0000;" vertex="1" parent="1">
          <mxGeometry x="820" y="580" width="20" height="20" as="geometry" />
        </mxCell>
        <mxCell id="Fw9Gq_leVeL55fq2eISz-183" value="" style="ellipse;whiteSpace=wrap;html=1;aspect=fixed;fillColor=#FF0000;" vertex="1" parent="1">
          <mxGeometry x="900" y="370" width="20" height="20" as="geometry" />
        </mxCell>
        <mxCell id="Fw9Gq_leVeL55fq2eISz-184" value="" style="ellipse;whiteSpace=wrap;html=1;aspect=fixed;fillColor=#FF0000;" vertex="1" parent="1">
          <mxGeometry x="900" y="440" width="20" height="20" as="geometry" />
        </mxCell>
        <mxCell id="Fw9Gq_leVeL55fq2eISz-185" value="" style="ellipse;whiteSpace=wrap;html=1;aspect=fixed;fillColor=#FF0000;" vertex="1" parent="1">
          <mxGeometry x="900" y="500" width="20" height="20" as="geometry" />
        </mxCell>
        <mxCell id="Fw9Gq_leVeL55fq2eISz-186" value="" style="ellipse;whiteSpace=wrap;html=1;aspect=fixed;fillColor=#FF0000;" vertex="1" parent="1">
          <mxGeometry x="900" y="580" width="20" height="20" as="geometry" />
        </mxCell>
        <mxCell id="Fw9Gq_leVeL55fq2eISz-187" value="" style="endArrow=none;html=1;rounded=0;entryX=0;entryY=0.5;entryDx=0;entryDy=0;exitX=1;exitY=0.5;exitDx=0;exitDy=0;" edge="1" parent="1" source="Fw9Gq_leVeL55fq2eISz-179" target="Fw9Gq_leVeL55fq2eISz-183">
          <mxGeometry width="50" height="50" relative="1" as="geometry">
            <mxPoint x="750" y="440" as="sourcePoint" />
            <mxPoint x="800" y="390" as="targetPoint" />
          </mxGeometry>
        </mxCell>
        <mxCell id="Fw9Gq_leVeL55fq2eISz-188" value="" style="endArrow=none;html=1;rounded=0;entryX=0;entryY=0.5;entryDx=0;entryDy=0;" edge="1" parent="1" target="Fw9Gq_leVeL55fq2eISz-184">
          <mxGeometry width="50" height="50" relative="1" as="geometry">
            <mxPoint x="840" y="450" as="sourcePoint" />
            <mxPoint x="920" y="440" as="targetPoint" />
            <Array as="points">
              <mxPoint x="840" y="450" />
            </Array>
          </mxGeometry>
        </mxCell>
        <mxCell id="Fw9Gq_leVeL55fq2eISz-189" value="" style="endArrow=none;html=1;rounded=0;entryX=0;entryY=0.5;entryDx=0;entryDy=0;exitX=1;exitY=0.5;exitDx=0;exitDy=0;" edge="1" parent="1">
          <mxGeometry width="50" height="50" relative="1" as="geometry">
            <mxPoint x="840" y="510" as="sourcePoint" />
            <mxPoint x="900" y="510" as="targetPoint" />
          </mxGeometry>
        </mxCell>
        <mxCell id="Fw9Gq_leVeL55fq2eISz-190" value="" style="endArrow=none;html=1;rounded=0;entryX=0;entryY=0.5;entryDx=0;entryDy=0;exitX=1;exitY=0.5;exitDx=0;exitDy=0;" edge="1" parent="1">
          <mxGeometry width="50" height="50" relative="1" as="geometry">
            <mxPoint x="840" y="590" as="sourcePoint" />
            <mxPoint x="900" y="590" as="targetPoint" />
          </mxGeometry>
        </mxCell>
        <mxCell id="Fw9Gq_leVeL55fq2eISz-191" value="" style="endArrow=none;html=1;rounded=0;entryX=0;entryY=0.5;entryDx=0;entryDy=0;exitX=1;exitY=0.5;exitDx=0;exitDy=0;" edge="1" parent="1" source="Fw9Gq_leVeL55fq2eISz-182" target="Fw9Gq_leVeL55fq2eISz-185">
          <mxGeometry width="50" height="50" relative="1" as="geometry">
            <mxPoint x="840" y="550" as="sourcePoint" />
            <mxPoint x="900" y="550" as="targetPoint" />
          </mxGeometry>
        </mxCell>
        <mxCell id="Fw9Gq_leVeL55fq2eISz-192" value="" style="endArrow=none;html=1;rounded=0;entryX=0;entryY=0.5;entryDx=0;entryDy=0;" edge="1" parent="1" target="Fw9Gq_leVeL55fq2eISz-186">
          <mxGeometry width="50" height="50" relative="1" as="geometry">
            <mxPoint x="840" y="510" as="sourcePoint" />
            <mxPoint x="910" y="530" as="targetPoint" />
          </mxGeometry>
        </mxCell>
        <mxCell id="Fw9Gq_leVeL55fq2eISz-193" value="" style="endArrow=none;html=1;rounded=0;entryX=0;entryY=0.5;entryDx=0;entryDy=0;" edge="1" parent="1" target="Fw9Gq_leVeL55fq2eISz-184">
          <mxGeometry width="50" height="50" relative="1" as="geometry">
            <mxPoint x="840" y="590" as="sourcePoint" />
            <mxPoint x="910" y="480" as="targetPoint" />
          </mxGeometry>
        </mxCell>
        <mxCell id="Fw9Gq_leVeL55fq2eISz-194" value="" style="endArrow=none;html=1;rounded=0;entryX=0;entryY=0.5;entryDx=0;entryDy=0;" edge="1" parent="1" target="Fw9Gq_leVeL55fq2eISz-184">
          <mxGeometry width="50" height="50" relative="1" as="geometry">
            <mxPoint x="840" y="510" as="sourcePoint" />
            <mxPoint x="910" y="470" as="targetPoint" />
          </mxGeometry>
        </mxCell>
        <mxCell id="Fw9Gq_leVeL55fq2eISz-195" value="" style="endArrow=none;html=1;rounded=0;exitX=1;exitY=0.5;exitDx=0;exitDy=0;" edge="1" parent="1" source="Fw9Gq_leVeL55fq2eISz-180">
          <mxGeometry width="50" height="50" relative="1" as="geometry">
            <mxPoint x="840" y="470" as="sourcePoint" />
            <mxPoint x="900" y="510" as="targetPoint" />
          </mxGeometry>
        </mxCell>
        <mxCell id="Fw9Gq_leVeL55fq2eISz-196" value="" style="endArrow=none;html=1;rounded=0;entryX=0;entryY=0.5;entryDx=0;entryDy=0;" edge="1" parent="1" target="Fw9Gq_leVeL55fq2eISz-186">
          <mxGeometry width="50" height="50" relative="1" as="geometry">
            <mxPoint x="840" y="450" as="sourcePoint" />
            <mxPoint x="940" y="530" as="targetPoint" />
          </mxGeometry>
        </mxCell>
        <mxCell id="Fw9Gq_leVeL55fq2eISz-197" value="" style="endArrow=none;html=1;rounded=0;entryX=0;entryY=0.5;entryDx=0;entryDy=0;" edge="1" parent="1" target="Fw9Gq_leVeL55fq2eISz-183">
          <mxGeometry width="50" height="50" relative="1" as="geometry">
            <mxPoint x="840" y="450" as="sourcePoint" />
            <mxPoint x="930" y="400" as="targetPoint" />
          </mxGeometry>
        </mxCell>
        <mxCell id="Fw9Gq_leVeL55fq2eISz-198" value="" style="endArrow=none;html=1;rounded=0;entryX=0;entryY=0.5;entryDx=0;entryDy=0;exitX=1;exitY=0.5;exitDx=0;exitDy=0;" edge="1" parent="1" source="Fw9Gq_leVeL55fq2eISz-181" target="Fw9Gq_leVeL55fq2eISz-183">
          <mxGeometry width="50" height="50" relative="1" as="geometry">
            <mxPoint x="920" y="420" as="sourcePoint" />
            <mxPoint x="980" y="420" as="targetPoint" />
          </mxGeometry>
        </mxCell>
        <mxCell id="Fw9Gq_leVeL55fq2eISz-200" value="" style="endArrow=none;html=1;rounded=0;entryX=0;entryY=0.5;entryDx=0;entryDy=0;exitX=1;exitY=0.5;exitDx=0;exitDy=0;" edge="1" parent="1" source="Fw9Gq_leVeL55fq2eISz-179" target="Fw9Gq_leVeL55fq2eISz-184">
          <mxGeometry width="50" height="50" relative="1" as="geometry">
            <mxPoint x="830" y="410" as="sourcePoint" />
            <mxPoint x="890" y="410" as="targetPoint" />
          </mxGeometry>
        </mxCell>
        <mxCell id="Fw9Gq_leVeL55fq2eISz-201" value="" style="endArrow=none;html=1;rounded=0;entryX=0;entryY=0.5;entryDx=0;entryDy=0;" edge="1" parent="1" target="Fw9Gq_leVeL55fq2eISz-185">
          <mxGeometry width="50" height="50" relative="1" as="geometry">
            <mxPoint x="840" y="380" as="sourcePoint" />
            <mxPoint x="960" y="470" as="targetPoint" />
          </mxGeometry>
        </mxCell>
        <mxCell id="Fw9Gq_leVeL55fq2eISz-202" value="" style="endArrow=none;html=1;rounded=0;exitX=1;exitY=0.5;exitDx=0;exitDy=0;" edge="1" parent="1" source="Fw9Gq_leVeL55fq2eISz-179">
          <mxGeometry width="50" height="50" relative="1" as="geometry">
            <mxPoint x="930" y="380" as="sourcePoint" />
            <mxPoint x="900" y="590" as="targetPoint" />
          </mxGeometry>
        </mxCell>
        <mxCell id="Fw9Gq_leVeL55fq2eISz-219" value="" style="ellipse;whiteSpace=wrap;html=1;aspect=fixed;fillColor=#249CFF;" vertex="1" parent="1">
          <mxGeometry x="580" y="400" width="20" height="20" as="geometry" />
        </mxCell>
        <mxCell id="Fw9Gq_leVeL55fq2eISz-220" value="" style="ellipse;whiteSpace=wrap;html=1;aspect=fixed;fillColor=#249CFF;" vertex="1" parent="1">
          <mxGeometry x="580" y="460" width="20" height="20" as="geometry" />
        </mxCell>
        <mxCell id="Fw9Gq_leVeL55fq2eISz-221" value="" style="ellipse;whiteSpace=wrap;html=1;aspect=fixed;fillColor=#249CFF;" vertex="1" parent="1">
          <mxGeometry x="580" y="530" width="20" height="20" as="geometry" />
        </mxCell>
        <mxCell id="Fw9Gq_leVeL55fq2eISz-222" value="" style="ellipse;whiteSpace=wrap;html=1;aspect=fixed;fillColor=#FF0000;" vertex="1" parent="1">
          <mxGeometry x="660" y="370" width="20" height="20" as="geometry" />
        </mxCell>
        <mxCell id="Fw9Gq_leVeL55fq2eISz-223" value="" style="ellipse;whiteSpace=wrap;html=1;aspect=fixed;fillColor=#FF0000;" vertex="1" parent="1">
          <mxGeometry x="660" y="440" width="20" height="20" as="geometry" />
        </mxCell>
        <mxCell id="Fw9Gq_leVeL55fq2eISz-224" value="" style="ellipse;whiteSpace=wrap;html=1;aspect=fixed;fillColor=#FF0000;" vertex="1" parent="1">
          <mxGeometry x="660" y="500" width="20" height="20" as="geometry" />
        </mxCell>
        <mxCell id="Fw9Gq_leVeL55fq2eISz-225" value="" style="ellipse;whiteSpace=wrap;html=1;aspect=fixed;fillColor=#FF0000;" vertex="1" parent="1">
          <mxGeometry x="660" y="580" width="20" height="20" as="geometry" />
        </mxCell>
        <mxCell id="Fw9Gq_leVeL55fq2eISz-226" value="" style="endArrow=classic;html=1;rounded=0;exitX=1;exitY=0.5;exitDx=0;exitDy=0;" edge="1" parent="1" source="Fw9Gq_leVeL55fq2eISz-219">
          <mxGeometry width="50" height="50" relative="1" as="geometry">
            <mxPoint x="650" y="480" as="sourcePoint" />
            <mxPoint x="660" y="450" as="targetPoint" />
          </mxGeometry>
        </mxCell>
        <mxCell id="Fw9Gq_leVeL55fq2eISz-227" value="" style="endArrow=classic;html=1;rounded=0;entryX=0.04;entryY=0.69;entryDx=0;entryDy=0;entryPerimeter=0;" edge="1" parent="1" target="Fw9Gq_leVeL55fq2eISz-222">
          <mxGeometry width="50" height="50" relative="1" as="geometry">
            <mxPoint x="600" y="410" as="sourcePoint" />
            <mxPoint x="700" y="430" as="targetPoint" />
          </mxGeometry>
        </mxCell>
        <mxCell id="Fw9Gq_leVeL55fq2eISz-228" value="" style="endArrow=classic;html=1;rounded=0;entryX=-0.02;entryY=0.79;entryDx=0;entryDy=0;entryPerimeter=0;" edge="1" parent="1" target="Fw9Gq_leVeL55fq2eISz-222">
          <mxGeometry width="50" height="50" relative="1" as="geometry">
            <mxPoint x="600" y="470" as="sourcePoint" />
            <mxPoint x="700" y="430" as="targetPoint" />
          </mxGeometry>
        </mxCell>
        <mxCell id="Fw9Gq_leVeL55fq2eISz-229" value="" style="endArrow=classic;html=1;rounded=0;exitX=1;exitY=0.5;exitDx=0;exitDy=0;entryX=-0.036;entryY=0.829;entryDx=0;entryDy=0;entryPerimeter=0;" edge="1" parent="1" source="Fw9Gq_leVeL55fq2eISz-221" target="Fw9Gq_leVeL55fq2eISz-222">
          <mxGeometry width="50" height="50" relative="1" as="geometry">
            <mxPoint x="600" y="587" as="sourcePoint" />
            <mxPoint x="663" y="510" as="targetPoint" />
          </mxGeometry>
        </mxCell>
        <mxCell id="Fw9Gq_leVeL55fq2eISz-231" value="" style="endArrow=classic;html=1;rounded=0;exitX=1;exitY=0.5;exitDx=0;exitDy=0;" edge="1" parent="1" source="Fw9Gq_leVeL55fq2eISz-220">
          <mxGeometry width="50" height="50" relative="1" as="geometry">
            <mxPoint x="590" y="567" as="sourcePoint" />
            <mxPoint x="660" y="510" as="targetPoint" />
          </mxGeometry>
        </mxCell>
        <mxCell id="Fw9Gq_leVeL55fq2eISz-232" value="" style="endArrow=classic;html=1;rounded=0;entryX=0;entryY=0;entryDx=0;entryDy=0;" edge="1" parent="1" target="Fw9Gq_leVeL55fq2eISz-225">
          <mxGeometry width="50" height="50" relative="1" as="geometry">
            <mxPoint x="600" y="540" as="sourcePoint" />
            <mxPoint x="693" y="560" as="targetPoint" />
          </mxGeometry>
        </mxCell>
        <mxCell id="Fw9Gq_leVeL55fq2eISz-233" value="" style="endArrow=classic;html=1;rounded=0;exitX=1;exitY=0.5;exitDx=0;exitDy=0;entryX=0;entryY=0.5;entryDx=0;entryDy=0;" edge="1" parent="1" source="Fw9Gq_leVeL55fq2eISz-221" target="Fw9Gq_leVeL55fq2eISz-224">
          <mxGeometry width="50" height="50" relative="1" as="geometry">
            <mxPoint x="620" y="597" as="sourcePoint" />
            <mxPoint x="683" y="520" as="targetPoint" />
          </mxGeometry>
        </mxCell>
        <mxCell id="Fw9Gq_leVeL55fq2eISz-234" value="" style="endArrow=classic;html=1;rounded=0;exitX=1;exitY=0.5;exitDx=0;exitDy=0;" edge="1" parent="1" source="Fw9Gq_leVeL55fq2eISz-221">
          <mxGeometry width="50" height="50" relative="1" as="geometry">
            <mxPoint x="600" y="667" as="sourcePoint" />
            <mxPoint x="660" y="450" as="targetPoint" />
          </mxGeometry>
        </mxCell>
        <mxCell id="Fw9Gq_leVeL55fq2eISz-235" value="" style="endArrow=classic;html=1;rounded=0;exitX=1;exitY=0.5;exitDx=0;exitDy=0;entryX=0;entryY=0.5;entryDx=0;entryDy=0;" edge="1" parent="1" source="Fw9Gq_leVeL55fq2eISz-220" target="Fw9Gq_leVeL55fq2eISz-223">
          <mxGeometry width="50" height="50" relative="1" as="geometry">
            <mxPoint x="610" y="510" as="sourcePoint" />
            <mxPoint x="660" y="460" as="targetPoint" />
          </mxGeometry>
        </mxCell>
        <mxCell id="Fw9Gq_leVeL55fq2eISz-237" value="" style="endArrow=classic;html=1;rounded=0;entryX=0;entryY=0.5;entryDx=0;entryDy=0;" edge="1" parent="1" target="Fw9Gq_leVeL55fq2eISz-224">
          <mxGeometry width="50" height="50" relative="1" as="geometry">
            <mxPoint x="600" y="410" as="sourcePoint" />
            <mxPoint x="660" y="460" as="targetPoint" />
          </mxGeometry>
        </mxCell>
        <mxCell id="Fw9Gq_leVeL55fq2eISz-238" value="" style="endArrow=classic;html=1;rounded=0;exitX=1.121;exitY=0.7;exitDx=0;exitDy=0;exitPerimeter=0;" edge="1" parent="1" source="Fw9Gq_leVeL55fq2eISz-219">
          <mxGeometry width="50" height="50" relative="1" as="geometry">
            <mxPoint x="540" y="420" as="sourcePoint" />
            <mxPoint x="660" y="580" as="targetPoint" />
          </mxGeometry>
        </mxCell>
        <mxCell id="Fw9Gq_leVeL55fq2eISz-239" value="" style="endArrow=classic;html=1;rounded=0;entryX=0;entryY=0;entryDx=0;entryDy=0;" edge="1" parent="1" target="Fw9Gq_leVeL55fq2eISz-225">
          <mxGeometry width="50" height="50" relative="1" as="geometry">
            <mxPoint x="600" y="470" as="sourcePoint" />
            <mxPoint x="610" y="610" as="targetPoint" />
          </mxGeometry>
        </mxCell>
        <mxCell id="Fw9Gq_leVeL55fq2eISz-242" value="" style="endArrow=none;html=1;rounded=0;entryX=0;entryY=0.5;entryDx=0;entryDy=0;" edge="1" parent="1" target="Fw9Gq_leVeL55fq2eISz-109">
          <mxGeometry width="50" height="50" relative="1" as="geometry">
            <mxPoint x="680" y="380" as="sourcePoint" />
            <mxPoint x="740" y="510" as="targetPoint" />
          </mxGeometry>
        </mxCell>
        <mxCell id="Fw9Gq_leVeL55fq2eISz-245" value="" style="endArrow=none;html=1;rounded=0;entryX=0;entryY=0.5;entryDx=0;entryDy=0;" edge="1" parent="1" target="Fw9Gq_leVeL55fq2eISz-244">
          <mxGeometry width="50" height="50" relative="1" as="geometry">
            <mxPoint x="840" y="590" as="sourcePoint" />
            <mxPoint x="900" y="380" as="targetPoint" />
          </mxGeometry>
        </mxCell>
        <mxCell id="Fw9Gq_leVeL55fq2eISz-246" value="&lt;b&gt;RBM 1&lt;/b&gt;" style="text;html=1;align=center;verticalAlign=middle;whiteSpace=wrap;rounded=0;" vertex="1" parent="1">
          <mxGeometry x="590" y="580" width="60" height="30" as="geometry" />
        </mxCell>
        <mxCell id="Fw9Gq_leVeL55fq2eISz-248" value="RBM 2&lt;div&gt;&lt;br&gt;&lt;/div&gt;" style="text;html=1;align=center;verticalAlign=middle;whiteSpace=wrap;rounded=0;fontStyle=1" vertex="1" parent="1">
          <mxGeometry x="695" y="610" width="60" height="30" as="geometry" />
        </mxCell>
        <mxCell id="Fw9Gq_leVeL55fq2eISz-249" value="RBM 3" style="text;html=1;align=center;verticalAlign=middle;whiteSpace=wrap;rounded=0;fontStyle=1" vertex="1" parent="1">
          <mxGeometry x="780" y="610" width="60" height="30" as="geometry" />
        </mxCell>
        <mxCell id="Fw9Gq_leVeL55fq2eISz-250" value="RBM 4" style="text;html=1;align=center;verticalAlign=middle;whiteSpace=wrap;rounded=0;fontStyle=1" vertex="1" parent="1">
          <mxGeometry x="860" y="620" width="60" height="30" as="geometry" />
        </mxCell>
        <mxCell id="Fw9Gq_leVeL55fq2eISz-251" value="&lt;font style=&quot;font-size: 12px;&quot;&gt;V1&lt;/font&gt;" style="text;html=1;align=center;verticalAlign=middle;whiteSpace=wrap;rounded=0;fontStyle=1" vertex="1" parent="1">
          <mxGeometry x="560" y="370" width="60" height="30" as="geometry" />
        </mxCell>
        <mxCell id="Fw9Gq_leVeL55fq2eISz-252" value="&lt;font style=&quot;font-size: 12px;&quot;&gt;H1/V2&lt;/font&gt;" style="text;html=1;align=center;verticalAlign=middle;whiteSpace=wrap;rounded=0;fontStyle=1" vertex="1" parent="1">
          <mxGeometry x="645" y="350" width="50" height="20" as="geometry" />
        </mxCell>
        <mxCell id="Fw9Gq_leVeL55fq2eISz-253" value="&lt;font style=&quot;font-size: 12px;&quot;&gt;H2/V3&lt;/font&gt;" style="text;html=1;align=center;verticalAlign=middle;whiteSpace=wrap;rounded=0;fontStyle=1" vertex="1" parent="1">
          <mxGeometry x="725" y="350" width="50" height="20" as="geometry" />
        </mxCell>
        <mxCell id="Fw9Gq_leVeL55fq2eISz-254" value="&lt;font style=&quot;font-size: 12px;&quot;&gt;H3/V4&lt;/font&gt;" style="text;html=1;align=center;verticalAlign=middle;whiteSpace=wrap;rounded=0;fontStyle=1" vertex="1" parent="1">
          <mxGeometry x="805" y="350" width="50" height="20" as="geometry" />
        </mxCell>
        <mxCell id="Fw9Gq_leVeL55fq2eISz-255" value="&lt;font style=&quot;font-size: 12px;&quot;&gt;H4&lt;/font&gt;" style="text;html=1;align=center;verticalAlign=middle;whiteSpace=wrap;rounded=0;fontStyle=1" vertex="1" parent="1">
          <mxGeometry x="890" y="350" width="45" height="20" as="geometry" />
        </mxCell>
        <mxCell id="Fw9Gq_leVeL55fq2eISz-256" value="" style="rounded=1;whiteSpace=wrap;html=1;fillColor=#D5E8D4;" vertex="1" parent="1">
          <mxGeometry x="170" y="720" width="130" height="270" as="geometry" />
        </mxCell>
        <mxCell id="Fw9Gq_leVeL55fq2eISz-257" value="" style="ellipse;whiteSpace=wrap;html=1;aspect=fixed;fillColor=#FF0000;" vertex="1" parent="1">
          <mxGeometry x="260" y="740" width="20" height="20" as="geometry" />
        </mxCell>
        <mxCell id="Fw9Gq_leVeL55fq2eISz-258" value="" style="ellipse;whiteSpace=wrap;html=1;aspect=fixed;fillColor=#FF0000;" vertex="1" parent="1">
          <mxGeometry x="260" y="810" width="20" height="20" as="geometry" />
        </mxCell>
        <mxCell id="Fw9Gq_leVeL55fq2eISz-259" value="" style="ellipse;whiteSpace=wrap;html=1;aspect=fixed;fillColor=#FF0000;" vertex="1" parent="1">
          <mxGeometry x="260" y="870" width="20" height="20" as="geometry" />
        </mxCell>
        <mxCell id="Fw9Gq_leVeL55fq2eISz-260" value="" style="ellipse;whiteSpace=wrap;html=1;aspect=fixed;fillColor=#FF0000;" vertex="1" parent="1">
          <mxGeometry x="260" y="950" width="20" height="20" as="geometry" />
        </mxCell>
        <mxCell id="Fw9Gq_leVeL55fq2eISz-261" value="" style="ellipse;whiteSpace=wrap;html=1;aspect=fixed;fillColor=#249CFF;" vertex="1" parent="1">
          <mxGeometry x="180" y="770" width="20" height="20" as="geometry" />
        </mxCell>
        <mxCell id="Fw9Gq_leVeL55fq2eISz-262" value="" style="ellipse;whiteSpace=wrap;html=1;aspect=fixed;fillColor=#249CFF;" vertex="1" parent="1">
          <mxGeometry x="180" y="830" width="20" height="20" as="geometry" />
        </mxCell>
        <mxCell id="Fw9Gq_leVeL55fq2eISz-263" value="" style="ellipse;whiteSpace=wrap;html=1;aspect=fixed;fillColor=#249CFF;" vertex="1" parent="1">
          <mxGeometry x="180" y="900" width="20" height="20" as="geometry" />
        </mxCell>
        <mxCell id="Fw9Gq_leVeL55fq2eISz-264" value="" style="ellipse;whiteSpace=wrap;html=1;aspect=fixed;fillColor=#FF0000;" vertex="1" parent="1">
          <mxGeometry x="260" y="740" width="20" height="20" as="geometry" />
        </mxCell>
        <mxCell id="Fw9Gq_leVeL55fq2eISz-265" value="" style="ellipse;whiteSpace=wrap;html=1;aspect=fixed;fillColor=#FF0000;" vertex="1" parent="1">
          <mxGeometry x="260" y="810" width="20" height="20" as="geometry" />
        </mxCell>
        <mxCell id="Fw9Gq_leVeL55fq2eISz-266" value="" style="ellipse;whiteSpace=wrap;html=1;aspect=fixed;fillColor=#FF0000;" vertex="1" parent="1">
          <mxGeometry x="260" y="870" width="20" height="20" as="geometry" />
        </mxCell>
        <mxCell id="Fw9Gq_leVeL55fq2eISz-267" value="" style="ellipse;whiteSpace=wrap;html=1;aspect=fixed;fillColor=#FF0000;" vertex="1" parent="1">
          <mxGeometry x="260" y="950" width="20" height="20" as="geometry" />
        </mxCell>
        <mxCell id="Fw9Gq_leVeL55fq2eISz-268" value="" style="endArrow=classic;html=1;rounded=0;exitX=1;exitY=0.5;exitDx=0;exitDy=0;" edge="1" parent="1" source="Fw9Gq_leVeL55fq2eISz-261">
          <mxGeometry width="50" height="50" relative="1" as="geometry">
            <mxPoint x="250" y="850" as="sourcePoint" />
            <mxPoint x="260" y="820" as="targetPoint" />
          </mxGeometry>
        </mxCell>
        <mxCell id="Fw9Gq_leVeL55fq2eISz-269" value="" style="endArrow=classic;html=1;rounded=0;entryX=0.04;entryY=0.69;entryDx=0;entryDy=0;entryPerimeter=0;" edge="1" parent="1" target="Fw9Gq_leVeL55fq2eISz-264">
          <mxGeometry width="50" height="50" relative="1" as="geometry">
            <mxPoint x="200" y="780" as="sourcePoint" />
            <mxPoint x="300" y="800" as="targetPoint" />
          </mxGeometry>
        </mxCell>
        <mxCell id="Fw9Gq_leVeL55fq2eISz-270" value="" style="endArrow=classic;html=1;rounded=0;entryX=-0.02;entryY=0.79;entryDx=0;entryDy=0;entryPerimeter=0;" edge="1" parent="1" target="Fw9Gq_leVeL55fq2eISz-264">
          <mxGeometry width="50" height="50" relative="1" as="geometry">
            <mxPoint x="200" y="840" as="sourcePoint" />
            <mxPoint x="300" y="800" as="targetPoint" />
          </mxGeometry>
        </mxCell>
        <mxCell id="Fw9Gq_leVeL55fq2eISz-271" value="" style="endArrow=classic;html=1;rounded=0;exitX=1;exitY=0.5;exitDx=0;exitDy=0;entryX=-0.036;entryY=0.829;entryDx=0;entryDy=0;entryPerimeter=0;" edge="1" parent="1" source="Fw9Gq_leVeL55fq2eISz-263" target="Fw9Gq_leVeL55fq2eISz-264">
          <mxGeometry width="50" height="50" relative="1" as="geometry">
            <mxPoint x="200" y="957" as="sourcePoint" />
            <mxPoint x="263" y="880" as="targetPoint" />
          </mxGeometry>
        </mxCell>
        <mxCell id="Fw9Gq_leVeL55fq2eISz-272" value="" style="endArrow=classic;html=1;rounded=0;exitX=1;exitY=0.5;exitDx=0;exitDy=0;" edge="1" parent="1" source="Fw9Gq_leVeL55fq2eISz-262">
          <mxGeometry width="50" height="50" relative="1" as="geometry">
            <mxPoint x="190" y="937" as="sourcePoint" />
            <mxPoint x="260" y="880" as="targetPoint" />
          </mxGeometry>
        </mxCell>
        <mxCell id="Fw9Gq_leVeL55fq2eISz-273" value="" style="endArrow=classic;html=1;rounded=0;entryX=0;entryY=0;entryDx=0;entryDy=0;" edge="1" parent="1" target="Fw9Gq_leVeL55fq2eISz-267">
          <mxGeometry width="50" height="50" relative="1" as="geometry">
            <mxPoint x="200" y="910" as="sourcePoint" />
            <mxPoint x="293" y="930" as="targetPoint" />
          </mxGeometry>
        </mxCell>
        <mxCell id="Fw9Gq_leVeL55fq2eISz-274" value="" style="endArrow=classic;html=1;rounded=0;exitX=1;exitY=0.5;exitDx=0;exitDy=0;entryX=0;entryY=0.5;entryDx=0;entryDy=0;" edge="1" parent="1" source="Fw9Gq_leVeL55fq2eISz-263" target="Fw9Gq_leVeL55fq2eISz-266">
          <mxGeometry width="50" height="50" relative="1" as="geometry">
            <mxPoint x="220" y="967" as="sourcePoint" />
            <mxPoint x="283" y="890" as="targetPoint" />
          </mxGeometry>
        </mxCell>
        <mxCell id="Fw9Gq_leVeL55fq2eISz-275" value="" style="endArrow=classic;html=1;rounded=0;exitX=1;exitY=0.5;exitDx=0;exitDy=0;" edge="1" parent="1" source="Fw9Gq_leVeL55fq2eISz-263">
          <mxGeometry width="50" height="50" relative="1" as="geometry">
            <mxPoint x="200" y="1037" as="sourcePoint" />
            <mxPoint x="260" y="820" as="targetPoint" />
          </mxGeometry>
        </mxCell>
        <mxCell id="Fw9Gq_leVeL55fq2eISz-276" value="" style="endArrow=classic;html=1;rounded=0;exitX=1;exitY=0.5;exitDx=0;exitDy=0;entryX=0;entryY=0.5;entryDx=0;entryDy=0;" edge="1" parent="1" source="Fw9Gq_leVeL55fq2eISz-262" target="Fw9Gq_leVeL55fq2eISz-265">
          <mxGeometry width="50" height="50" relative="1" as="geometry">
            <mxPoint x="210" y="880" as="sourcePoint" />
            <mxPoint x="260" y="830" as="targetPoint" />
          </mxGeometry>
        </mxCell>
        <mxCell id="Fw9Gq_leVeL55fq2eISz-277" value="" style="endArrow=classic;html=1;rounded=0;entryX=0;entryY=0.5;entryDx=0;entryDy=0;" edge="1" parent="1" target="Fw9Gq_leVeL55fq2eISz-266">
          <mxGeometry width="50" height="50" relative="1" as="geometry">
            <mxPoint x="200" y="780" as="sourcePoint" />
            <mxPoint x="260" y="830" as="targetPoint" />
          </mxGeometry>
        </mxCell>
        <mxCell id="Fw9Gq_leVeL55fq2eISz-278" value="" style="endArrow=classic;html=1;rounded=0;exitX=1.121;exitY=0.7;exitDx=0;exitDy=0;exitPerimeter=0;" edge="1" parent="1" source="Fw9Gq_leVeL55fq2eISz-261">
          <mxGeometry width="50" height="50" relative="1" as="geometry">
            <mxPoint x="140" y="790" as="sourcePoint" />
            <mxPoint x="260" y="950" as="targetPoint" />
          </mxGeometry>
        </mxCell>
        <mxCell id="Fw9Gq_leVeL55fq2eISz-279" value="" style="endArrow=classic;html=1;rounded=0;entryX=0;entryY=0;entryDx=0;entryDy=0;" edge="1" parent="1" target="Fw9Gq_leVeL55fq2eISz-267">
          <mxGeometry width="50" height="50" relative="1" as="geometry">
            <mxPoint x="200" y="840" as="sourcePoint" />
            <mxPoint x="210" y="980" as="targetPoint" />
          </mxGeometry>
        </mxCell>
        <mxCell id="Fw9Gq_leVeL55fq2eISz-280" value="&lt;b&gt;RBM 1&lt;/b&gt;" style="text;html=1;align=center;verticalAlign=middle;whiteSpace=wrap;rounded=0;" vertex="1" parent="1">
          <mxGeometry x="190" y="950" width="60" height="30" as="geometry" />
        </mxCell>
        <mxCell id="Fw9Gq_leVeL55fq2eISz-281" value="&lt;font style=&quot;font-size: 12px;&quot;&gt;V1&lt;/font&gt;" style="text;html=1;align=center;verticalAlign=middle;whiteSpace=wrap;rounded=0;fontStyle=1" vertex="1" parent="1">
          <mxGeometry x="160" y="740" width="60" height="30" as="geometry" />
        </mxCell>
        <mxCell id="Fw9Gq_leVeL55fq2eISz-282" value="" style="rounded=1;whiteSpace=wrap;html=1;fillColor=#B9E0A5;movable=1;resizable=1;rotatable=1;deletable=1;editable=1;locked=0;connectable=1;" vertex="1" parent="1">
          <mxGeometry x="335" y="710" width="130" height="290" as="geometry" />
        </mxCell>
        <mxCell id="Fw9Gq_leVeL55fq2eISz-283" value="" style="ellipse;whiteSpace=wrap;html=1;aspect=fixed;fillColor=#FF0000;movable=1;resizable=1;rotatable=1;deletable=1;editable=1;locked=0;connectable=1;" vertex="1" parent="1">
          <mxGeometry x="352.5" y="750" width="20" height="20" as="geometry" />
        </mxCell>
        <mxCell id="Fw9Gq_leVeL55fq2eISz-284" value="" style="ellipse;whiteSpace=wrap;html=1;aspect=fixed;fillColor=#FF0000;movable=1;resizable=1;rotatable=1;deletable=1;editable=1;locked=0;connectable=1;" vertex="1" parent="1">
          <mxGeometry x="352.5" y="820" width="20" height="20" as="geometry" />
        </mxCell>
        <mxCell id="Fw9Gq_leVeL55fq2eISz-285" value="" style="ellipse;whiteSpace=wrap;html=1;aspect=fixed;fillColor=#FF0000;movable=1;resizable=1;rotatable=1;deletable=1;editable=1;locked=0;connectable=1;" vertex="1" parent="1">
          <mxGeometry x="352.5" y="880" width="20" height="20" as="geometry" />
        </mxCell>
        <mxCell id="Fw9Gq_leVeL55fq2eISz-286" value="" style="ellipse;whiteSpace=wrap;html=1;aspect=fixed;fillColor=#FF0000;movable=1;resizable=1;rotatable=1;deletable=1;editable=1;locked=0;connectable=1;" vertex="1" parent="1">
          <mxGeometry x="352.5" y="960" width="20" height="20" as="geometry" />
        </mxCell>
        <mxCell id="Fw9Gq_leVeL55fq2eISz-287" value="" style="ellipse;whiteSpace=wrap;html=1;aspect=fixed;fillColor=#FF0000;movable=1;resizable=1;rotatable=1;deletable=1;editable=1;locked=0;connectable=1;" vertex="1" parent="1">
          <mxGeometry x="432.5" y="750" width="20" height="20" as="geometry" />
        </mxCell>
        <mxCell id="Fw9Gq_leVeL55fq2eISz-288" value="" style="ellipse;whiteSpace=wrap;html=1;aspect=fixed;fillColor=#FF0000;movable=1;resizable=1;rotatable=1;deletable=1;editable=1;locked=0;connectable=1;" vertex="1" parent="1">
          <mxGeometry x="432.5" y="820" width="20" height="20" as="geometry" />
        </mxCell>
        <mxCell id="Fw9Gq_leVeL55fq2eISz-289" value="" style="ellipse;whiteSpace=wrap;html=1;aspect=fixed;fillColor=#FF0000;movable=1;resizable=1;rotatable=1;deletable=1;editable=1;locked=0;connectable=1;" vertex="1" parent="1">
          <mxGeometry x="432.5" y="880" width="20" height="20" as="geometry" />
        </mxCell>
        <mxCell id="Fw9Gq_leVeL55fq2eISz-290" value="" style="ellipse;whiteSpace=wrap;html=1;aspect=fixed;fillColor=#FF0000;movable=1;resizable=1;rotatable=1;deletable=1;editable=1;locked=0;connectable=1;" vertex="1" parent="1">
          <mxGeometry x="432.5" y="960" width="20" height="20" as="geometry" />
        </mxCell>
        <mxCell id="Fw9Gq_leVeL55fq2eISz-291" value="" style="endArrow=none;html=1;rounded=0;entryX=0;entryY=0.5;entryDx=0;entryDy=0;exitX=1;exitY=0.5;exitDx=0;exitDy=0;movable=1;resizable=1;rotatable=1;deletable=1;editable=1;locked=0;connectable=1;" edge="1" parent="1" source="Fw9Gq_leVeL55fq2eISz-283" target="Fw9Gq_leVeL55fq2eISz-287">
          <mxGeometry width="50" height="50" relative="1" as="geometry">
            <mxPoint x="282.5" y="820" as="sourcePoint" />
            <mxPoint x="332.5" y="770" as="targetPoint" />
          </mxGeometry>
        </mxCell>
        <mxCell id="Fw9Gq_leVeL55fq2eISz-292" value="" style="endArrow=none;html=1;rounded=0;entryX=0;entryY=0.5;entryDx=0;entryDy=0;movable=1;resizable=1;rotatable=1;deletable=1;editable=1;locked=0;connectable=1;" edge="1" parent="1" target="Fw9Gq_leVeL55fq2eISz-288">
          <mxGeometry width="50" height="50" relative="1" as="geometry">
            <mxPoint x="372.5" y="830" as="sourcePoint" />
            <mxPoint x="452.5" y="820" as="targetPoint" />
            <Array as="points">
              <mxPoint x="372.5" y="830" />
            </Array>
          </mxGeometry>
        </mxCell>
        <mxCell id="Fw9Gq_leVeL55fq2eISz-293" value="" style="endArrow=none;html=1;rounded=0;entryX=0;entryY=0.5;entryDx=0;entryDy=0;exitX=1;exitY=0.5;exitDx=0;exitDy=0;movable=1;resizable=1;rotatable=1;deletable=1;editable=1;locked=0;connectable=1;" edge="1" parent="1">
          <mxGeometry width="50" height="50" relative="1" as="geometry">
            <mxPoint x="372.5" y="890" as="sourcePoint" />
            <mxPoint x="432.5" y="890" as="targetPoint" />
          </mxGeometry>
        </mxCell>
        <mxCell id="Fw9Gq_leVeL55fq2eISz-294" value="" style="endArrow=none;html=1;rounded=0;entryX=0;entryY=0.5;entryDx=0;entryDy=0;exitX=1;exitY=0.5;exitDx=0;exitDy=0;movable=1;resizable=1;rotatable=1;deletable=1;editable=1;locked=0;connectable=1;" edge="1" parent="1">
          <mxGeometry width="50" height="50" relative="1" as="geometry">
            <mxPoint x="372.5" y="970" as="sourcePoint" />
            <mxPoint x="432.5" y="970" as="targetPoint" />
          </mxGeometry>
        </mxCell>
        <mxCell id="Fw9Gq_leVeL55fq2eISz-295" value="" style="endArrow=none;html=1;rounded=0;entryX=0;entryY=0.5;entryDx=0;entryDy=0;exitX=1;exitY=0.5;exitDx=0;exitDy=0;movable=1;resizable=1;rotatable=1;deletable=1;editable=1;locked=0;connectable=1;" edge="1" parent="1" source="Fw9Gq_leVeL55fq2eISz-286" target="Fw9Gq_leVeL55fq2eISz-289">
          <mxGeometry width="50" height="50" relative="1" as="geometry">
            <mxPoint x="372.5" y="930" as="sourcePoint" />
            <mxPoint x="432.5" y="930" as="targetPoint" />
          </mxGeometry>
        </mxCell>
        <mxCell id="Fw9Gq_leVeL55fq2eISz-296" value="" style="endArrow=none;html=1;rounded=0;entryX=0;entryY=0.5;entryDx=0;entryDy=0;movable=1;resizable=1;rotatable=1;deletable=1;editable=1;locked=0;connectable=1;" edge="1" parent="1" target="Fw9Gq_leVeL55fq2eISz-290">
          <mxGeometry width="50" height="50" relative="1" as="geometry">
            <mxPoint x="372.5" y="890" as="sourcePoint" />
            <mxPoint x="442.5" y="910" as="targetPoint" />
          </mxGeometry>
        </mxCell>
        <mxCell id="Fw9Gq_leVeL55fq2eISz-297" value="" style="endArrow=none;html=1;rounded=0;entryX=0;entryY=0.5;entryDx=0;entryDy=0;movable=1;resizable=1;rotatable=1;deletable=1;editable=1;locked=0;connectable=1;" edge="1" parent="1" target="Fw9Gq_leVeL55fq2eISz-288">
          <mxGeometry width="50" height="50" relative="1" as="geometry">
            <mxPoint x="372.5" y="970" as="sourcePoint" />
            <mxPoint x="442.5" y="860" as="targetPoint" />
          </mxGeometry>
        </mxCell>
        <mxCell id="Fw9Gq_leVeL55fq2eISz-298" value="" style="endArrow=none;html=1;rounded=0;entryX=0;entryY=0.5;entryDx=0;entryDy=0;movable=1;resizable=1;rotatable=1;deletable=1;editable=1;locked=0;connectable=1;" edge="1" parent="1" target="Fw9Gq_leVeL55fq2eISz-288">
          <mxGeometry width="50" height="50" relative="1" as="geometry">
            <mxPoint x="372.5" y="890" as="sourcePoint" />
            <mxPoint x="442.5" y="850" as="targetPoint" />
          </mxGeometry>
        </mxCell>
        <mxCell id="Fw9Gq_leVeL55fq2eISz-299" value="" style="endArrow=none;html=1;rounded=0;exitX=1;exitY=0.5;exitDx=0;exitDy=0;movable=1;resizable=1;rotatable=1;deletable=1;editable=1;locked=0;connectable=1;" edge="1" parent="1" source="Fw9Gq_leVeL55fq2eISz-284">
          <mxGeometry width="50" height="50" relative="1" as="geometry">
            <mxPoint x="372.5" y="850" as="sourcePoint" />
            <mxPoint x="432.5" y="890" as="targetPoint" />
          </mxGeometry>
        </mxCell>
        <mxCell id="Fw9Gq_leVeL55fq2eISz-300" value="" style="endArrow=none;html=1;rounded=0;entryX=0;entryY=0.5;entryDx=0;entryDy=0;movable=1;resizable=1;rotatable=1;deletable=1;editable=1;locked=0;connectable=1;" edge="1" parent="1" target="Fw9Gq_leVeL55fq2eISz-290">
          <mxGeometry width="50" height="50" relative="1" as="geometry">
            <mxPoint x="372.5" y="830" as="sourcePoint" />
            <mxPoint x="472.5" y="910" as="targetPoint" />
          </mxGeometry>
        </mxCell>
        <mxCell id="Fw9Gq_leVeL55fq2eISz-301" value="" style="endArrow=none;html=1;rounded=0;entryX=0;entryY=0.5;entryDx=0;entryDy=0;movable=1;resizable=1;rotatable=1;deletable=1;editable=1;locked=0;connectable=1;" edge="1" parent="1" target="Fw9Gq_leVeL55fq2eISz-287">
          <mxGeometry width="50" height="50" relative="1" as="geometry">
            <mxPoint x="372.5" y="830" as="sourcePoint" />
            <mxPoint x="462.5" y="780" as="targetPoint" />
          </mxGeometry>
        </mxCell>
        <mxCell id="Fw9Gq_leVeL55fq2eISz-302" value="" style="endArrow=none;html=1;rounded=0;entryX=0;entryY=0.5;entryDx=0;entryDy=0;exitX=1;exitY=0.5;exitDx=0;exitDy=0;movable=1;resizable=1;rotatable=1;deletable=1;editable=1;locked=0;connectable=1;" edge="1" parent="1" source="Fw9Gq_leVeL55fq2eISz-285" target="Fw9Gq_leVeL55fq2eISz-287">
          <mxGeometry width="50" height="50" relative="1" as="geometry">
            <mxPoint x="452.5" y="800" as="sourcePoint" />
            <mxPoint x="512.5" y="800" as="targetPoint" />
          </mxGeometry>
        </mxCell>
        <mxCell id="Fw9Gq_leVeL55fq2eISz-303" value="" style="endArrow=none;html=1;rounded=0;entryX=0;entryY=0.5;entryDx=0;entryDy=0;movable=1;resizable=1;rotatable=1;deletable=1;editable=1;locked=0;connectable=1;" edge="1" parent="1" target="Fw9Gq_leVeL55fq2eISz-287">
          <mxGeometry width="50" height="50" relative="1" as="geometry">
            <mxPoint x="372.5" y="970" as="sourcePoint" />
            <mxPoint x="532.5" y="840" as="targetPoint" />
          </mxGeometry>
        </mxCell>
        <mxCell id="Fw9Gq_leVeL55fq2eISz-304" value="" style="endArrow=none;html=1;rounded=0;entryX=0;entryY=0.5;entryDx=0;entryDy=0;exitX=1;exitY=0.5;exitDx=0;exitDy=0;movable=1;resizable=1;rotatable=1;deletable=1;editable=1;locked=0;connectable=1;" edge="1" parent="1" source="Fw9Gq_leVeL55fq2eISz-283" target="Fw9Gq_leVeL55fq2eISz-288">
          <mxGeometry width="50" height="50" relative="1" as="geometry">
            <mxPoint x="362.5" y="790" as="sourcePoint" />
            <mxPoint x="422.5" y="790" as="targetPoint" />
          </mxGeometry>
        </mxCell>
        <mxCell id="Fw9Gq_leVeL55fq2eISz-305" value="" style="endArrow=none;html=1;rounded=0;exitX=1;exitY=0.5;exitDx=0;exitDy=0;movable=1;resizable=1;rotatable=1;deletable=1;editable=1;locked=0;connectable=1;" edge="1" parent="1" source="Fw9Gq_leVeL55fq2eISz-283">
          <mxGeometry width="50" height="50" relative="1" as="geometry">
            <mxPoint x="462.5" y="760" as="sourcePoint" />
            <mxPoint x="432.5" y="970" as="targetPoint" />
          </mxGeometry>
        </mxCell>
        <mxCell id="Fw9Gq_leVeL55fq2eISz-306" value="" style="ellipse;whiteSpace=wrap;html=1;aspect=fixed;fillColor=#FF0000;movable=1;resizable=1;rotatable=1;deletable=1;editable=1;locked=0;connectable=1;" vertex="1" parent="1">
          <mxGeometry x="432.5" y="750" width="20" height="20" as="geometry" />
        </mxCell>
        <mxCell id="Fw9Gq_leVeL55fq2eISz-307" value="" style="ellipse;whiteSpace=wrap;html=1;aspect=fixed;fillColor=#FF0000;movable=1;resizable=1;rotatable=1;deletable=1;editable=1;locked=0;connectable=1;" vertex="1" parent="1">
          <mxGeometry x="432.5" y="820" width="20" height="20" as="geometry" />
        </mxCell>
        <mxCell id="Fw9Gq_leVeL55fq2eISz-308" value="" style="ellipse;whiteSpace=wrap;html=1;aspect=fixed;fillColor=#FF0000;movable=1;resizable=1;rotatable=1;deletable=1;editable=1;locked=0;connectable=1;" vertex="1" parent="1">
          <mxGeometry x="432.5" y="880" width="20" height="20" as="geometry" />
        </mxCell>
        <mxCell id="Fw9Gq_leVeL55fq2eISz-309" value="" style="ellipse;whiteSpace=wrap;html=1;aspect=fixed;fillColor=#FF0000;movable=1;resizable=1;rotatable=1;deletable=1;editable=1;locked=0;connectable=1;" vertex="1" parent="1">
          <mxGeometry x="432.5" y="960" width="20" height="20" as="geometry" />
        </mxCell>
        <mxCell id="Fw9Gq_leVeL55fq2eISz-310" value="" style="ellipse;whiteSpace=wrap;html=1;aspect=fixed;fillColor=#FF0000;movable=1;resizable=1;rotatable=1;deletable=1;editable=1;locked=0;connectable=1;" vertex="1" parent="1">
          <mxGeometry x="352.5" y="750" width="20" height="20" as="geometry" />
        </mxCell>
        <mxCell id="Fw9Gq_leVeL55fq2eISz-311" value="" style="ellipse;whiteSpace=wrap;html=1;aspect=fixed;fillColor=#FF0000;movable=1;resizable=1;rotatable=1;deletable=1;editable=1;locked=0;connectable=1;" vertex="1" parent="1">
          <mxGeometry x="352.5" y="820" width="20" height="20" as="geometry" />
        </mxCell>
        <mxCell id="Fw9Gq_leVeL55fq2eISz-312" value="" style="ellipse;whiteSpace=wrap;html=1;aspect=fixed;fillColor=#FF0000;movable=1;resizable=1;rotatable=1;deletable=1;editable=1;locked=0;connectable=1;" vertex="1" parent="1">
          <mxGeometry x="352.5" y="880" width="20" height="20" as="geometry" />
        </mxCell>
        <mxCell id="Fw9Gq_leVeL55fq2eISz-313" value="" style="ellipse;whiteSpace=wrap;html=1;aspect=fixed;fillColor=#FF0000;movable=1;resizable=1;rotatable=1;deletable=1;editable=1;locked=0;connectable=1;" vertex="1" parent="1">
          <mxGeometry x="352.5" y="960" width="20" height="20" as="geometry" />
        </mxCell>
        <mxCell id="Fw9Gq_leVeL55fq2eISz-314" value="" style="endArrow=none;html=1;rounded=0;entryX=0;entryY=0.5;entryDx=0;entryDy=0;movable=1;resizable=1;rotatable=1;deletable=1;editable=1;locked=0;connectable=1;" edge="1" parent="1" target="Fw9Gq_leVeL55fq2eISz-308">
          <mxGeometry width="50" height="50" relative="1" as="geometry">
            <mxPoint x="372.5" y="760" as="sourcePoint" />
            <mxPoint x="432.5" y="890" as="targetPoint" />
          </mxGeometry>
        </mxCell>
        <mxCell id="Fw9Gq_leVeL55fq2eISz-315" value="RBM 2&lt;div&gt;&lt;br&gt;&lt;/div&gt;" style="text;html=1;align=center;verticalAlign=middle;whiteSpace=wrap;rounded=0;fontStyle=1;movable=1;resizable=1;rotatable=1;deletable=1;editable=1;locked=0;connectable=1;" vertex="1" parent="1">
          <mxGeometry x="372.5" y="970" width="60" height="40" as="geometry" />
        </mxCell>
        <mxCell id="Fw9Gq_leVeL55fq2eISz-316" value="&lt;font style=&quot;font-size: 12px;&quot;&gt;H1/V2&lt;/font&gt;" style="text;html=1;align=center;verticalAlign=middle;whiteSpace=wrap;rounded=0;fontStyle=1;movable=1;resizable=1;rotatable=1;deletable=1;editable=1;locked=0;connectable=1;" vertex="1" parent="1">
          <mxGeometry x="337.5" y="730" width="50" height="20" as="geometry" />
        </mxCell>
        <mxCell id="Fw9Gq_leVeL55fq2eISz-317" value="&lt;font style=&quot;font-size: 12px;&quot;&gt;H1/V2&lt;/font&gt;" style="text;html=1;align=center;verticalAlign=middle;whiteSpace=wrap;rounded=0;fontStyle=1;movable=1;resizable=1;rotatable=1;deletable=1;editable=1;locked=0;connectable=1;" vertex="1" parent="1">
          <mxGeometry x="245" y="720" width="50" height="20" as="geometry" />
        </mxCell>
        <mxCell id="Fw9Gq_leVeL55fq2eISz-319" value="H2/V3" style="text;html=1;align=center;verticalAlign=middle;whiteSpace=wrap;rounded=0;fontStyle=1;movable=1;resizable=1;rotatable=1;deletable=1;editable=1;locked=0;connectable=1;" vertex="1" parent="1">
          <mxGeometry x="402.5" y="730" width="50" height="20" as="geometry" />
        </mxCell>
        <mxCell id="Fw9Gq_leVeL55fq2eISz-320" value="" style="rounded=1;whiteSpace=wrap;html=1;fillColor=#97D077;movable=1;resizable=1;rotatable=1;deletable=1;editable=1;locked=0;connectable=1;" vertex="1" parent="1">
          <mxGeometry x="500" y="710" width="130" height="290" as="geometry" />
        </mxCell>
        <mxCell id="Fw9Gq_leVeL55fq2eISz-321" value="" style="ellipse;whiteSpace=wrap;html=1;aspect=fixed;fillColor=#FF0000;movable=1;resizable=1;rotatable=1;deletable=1;editable=1;locked=0;connectable=1;" vertex="1" parent="1">
          <mxGeometry x="517.5" y="750" width="20" height="20" as="geometry" />
        </mxCell>
        <mxCell id="Fw9Gq_leVeL55fq2eISz-322" value="" style="ellipse;whiteSpace=wrap;html=1;aspect=fixed;fillColor=#FF0000;movable=1;resizable=1;rotatable=1;deletable=1;editable=1;locked=0;connectable=1;" vertex="1" parent="1">
          <mxGeometry x="517.5" y="820" width="20" height="20" as="geometry" />
        </mxCell>
        <mxCell id="Fw9Gq_leVeL55fq2eISz-323" value="" style="ellipse;whiteSpace=wrap;html=1;aspect=fixed;fillColor=#FF0000;movable=1;resizable=1;rotatable=1;deletable=1;editable=1;locked=0;connectable=1;" vertex="1" parent="1">
          <mxGeometry x="517.5" y="880" width="20" height="20" as="geometry" />
        </mxCell>
        <mxCell id="Fw9Gq_leVeL55fq2eISz-324" value="" style="ellipse;whiteSpace=wrap;html=1;aspect=fixed;fillColor=#FF0000;movable=1;resizable=1;rotatable=1;deletable=1;editable=1;locked=0;connectable=1;" vertex="1" parent="1">
          <mxGeometry x="517.5" y="960" width="20" height="20" as="geometry" />
        </mxCell>
        <mxCell id="Fw9Gq_leVeL55fq2eISz-325" value="" style="ellipse;whiteSpace=wrap;html=1;aspect=fixed;fillColor=#FF0000;movable=1;resizable=1;rotatable=1;deletable=1;editable=1;locked=0;connectable=1;" vertex="1" parent="1">
          <mxGeometry x="597.5" y="750" width="20" height="20" as="geometry" />
        </mxCell>
        <mxCell id="Fw9Gq_leVeL55fq2eISz-326" value="" style="ellipse;whiteSpace=wrap;html=1;aspect=fixed;fillColor=#FF0000;movable=1;resizable=1;rotatable=1;deletable=1;editable=1;locked=0;connectable=1;" vertex="1" parent="1">
          <mxGeometry x="597.5" y="820" width="20" height="20" as="geometry" />
        </mxCell>
        <mxCell id="Fw9Gq_leVeL55fq2eISz-327" value="" style="ellipse;whiteSpace=wrap;html=1;aspect=fixed;fillColor=#FF0000;movable=1;resizable=1;rotatable=1;deletable=1;editable=1;locked=0;connectable=1;" vertex="1" parent="1">
          <mxGeometry x="597.5" y="880" width="20" height="20" as="geometry" />
        </mxCell>
        <mxCell id="Fw9Gq_leVeL55fq2eISz-328" value="" style="ellipse;whiteSpace=wrap;html=1;aspect=fixed;fillColor=#FF0000;movable=1;resizable=1;rotatable=1;deletable=1;editable=1;locked=0;connectable=1;" vertex="1" parent="1">
          <mxGeometry x="597.5" y="960" width="20" height="20" as="geometry" />
        </mxCell>
        <mxCell id="Fw9Gq_leVeL55fq2eISz-329" value="" style="endArrow=none;html=1;rounded=0;entryX=0;entryY=0.5;entryDx=0;entryDy=0;exitX=1;exitY=0.5;exitDx=0;exitDy=0;movable=1;resizable=1;rotatable=1;deletable=1;editable=1;locked=0;connectable=1;" edge="1" parent="1" source="Fw9Gq_leVeL55fq2eISz-321" target="Fw9Gq_leVeL55fq2eISz-325">
          <mxGeometry width="50" height="50" relative="1" as="geometry">
            <mxPoint x="447.5" y="820" as="sourcePoint" />
            <mxPoint x="497.5" y="770" as="targetPoint" />
          </mxGeometry>
        </mxCell>
        <mxCell id="Fw9Gq_leVeL55fq2eISz-330" value="" style="endArrow=none;html=1;rounded=0;entryX=0;entryY=0.5;entryDx=0;entryDy=0;movable=1;resizable=1;rotatable=1;deletable=1;editable=1;locked=0;connectable=1;" edge="1" parent="1" target="Fw9Gq_leVeL55fq2eISz-326">
          <mxGeometry width="50" height="50" relative="1" as="geometry">
            <mxPoint x="537.5" y="830" as="sourcePoint" />
            <mxPoint x="617.5" y="820" as="targetPoint" />
            <Array as="points">
              <mxPoint x="537.5" y="830" />
            </Array>
          </mxGeometry>
        </mxCell>
        <mxCell id="Fw9Gq_leVeL55fq2eISz-331" value="" style="endArrow=none;html=1;rounded=0;entryX=0;entryY=0.5;entryDx=0;entryDy=0;exitX=1;exitY=0.5;exitDx=0;exitDy=0;movable=1;resizable=1;rotatable=1;deletable=1;editable=1;locked=0;connectable=1;" edge="1" parent="1">
          <mxGeometry width="50" height="50" relative="1" as="geometry">
            <mxPoint x="537.5" y="890" as="sourcePoint" />
            <mxPoint x="597.5" y="890" as="targetPoint" />
          </mxGeometry>
        </mxCell>
        <mxCell id="Fw9Gq_leVeL55fq2eISz-332" value="" style="endArrow=none;html=1;rounded=0;entryX=0;entryY=0.5;entryDx=0;entryDy=0;exitX=1;exitY=0.5;exitDx=0;exitDy=0;movable=1;resizable=1;rotatable=1;deletable=1;editable=1;locked=0;connectable=1;" edge="1" parent="1">
          <mxGeometry width="50" height="50" relative="1" as="geometry">
            <mxPoint x="537.5" y="970" as="sourcePoint" />
            <mxPoint x="597.5" y="970" as="targetPoint" />
          </mxGeometry>
        </mxCell>
        <mxCell id="Fw9Gq_leVeL55fq2eISz-333" value="" style="endArrow=none;html=1;rounded=0;entryX=0;entryY=0.5;entryDx=0;entryDy=0;exitX=1;exitY=0.5;exitDx=0;exitDy=0;movable=1;resizable=1;rotatable=1;deletable=1;editable=1;locked=0;connectable=1;" edge="1" parent="1" source="Fw9Gq_leVeL55fq2eISz-324" target="Fw9Gq_leVeL55fq2eISz-327">
          <mxGeometry width="50" height="50" relative="1" as="geometry">
            <mxPoint x="537.5" y="930" as="sourcePoint" />
            <mxPoint x="597.5" y="930" as="targetPoint" />
          </mxGeometry>
        </mxCell>
        <mxCell id="Fw9Gq_leVeL55fq2eISz-334" value="" style="endArrow=none;html=1;rounded=0;entryX=0;entryY=0.5;entryDx=0;entryDy=0;movable=1;resizable=1;rotatable=1;deletable=1;editable=1;locked=0;connectable=1;" edge="1" parent="1" target="Fw9Gq_leVeL55fq2eISz-328">
          <mxGeometry width="50" height="50" relative="1" as="geometry">
            <mxPoint x="537.5" y="890" as="sourcePoint" />
            <mxPoint x="607.5" y="910" as="targetPoint" />
          </mxGeometry>
        </mxCell>
        <mxCell id="Fw9Gq_leVeL55fq2eISz-335" value="" style="endArrow=none;html=1;rounded=0;entryX=0;entryY=0.5;entryDx=0;entryDy=0;movable=1;resizable=1;rotatable=1;deletable=1;editable=1;locked=0;connectable=1;" edge="1" parent="1" target="Fw9Gq_leVeL55fq2eISz-326">
          <mxGeometry width="50" height="50" relative="1" as="geometry">
            <mxPoint x="537.5" y="970" as="sourcePoint" />
            <mxPoint x="607.5" y="860" as="targetPoint" />
          </mxGeometry>
        </mxCell>
        <mxCell id="Fw9Gq_leVeL55fq2eISz-336" value="" style="endArrow=none;html=1;rounded=0;entryX=0;entryY=0.5;entryDx=0;entryDy=0;movable=1;resizable=1;rotatable=1;deletable=1;editable=1;locked=0;connectable=1;" edge="1" parent="1" target="Fw9Gq_leVeL55fq2eISz-326">
          <mxGeometry width="50" height="50" relative="1" as="geometry">
            <mxPoint x="537.5" y="890" as="sourcePoint" />
            <mxPoint x="607.5" y="850" as="targetPoint" />
          </mxGeometry>
        </mxCell>
        <mxCell id="Fw9Gq_leVeL55fq2eISz-337" value="" style="endArrow=none;html=1;rounded=0;exitX=1;exitY=0.5;exitDx=0;exitDy=0;movable=1;resizable=1;rotatable=1;deletable=1;editable=1;locked=0;connectable=1;" edge="1" parent="1" source="Fw9Gq_leVeL55fq2eISz-322">
          <mxGeometry width="50" height="50" relative="1" as="geometry">
            <mxPoint x="537.5" y="850" as="sourcePoint" />
            <mxPoint x="597.5" y="890" as="targetPoint" />
          </mxGeometry>
        </mxCell>
        <mxCell id="Fw9Gq_leVeL55fq2eISz-338" value="" style="endArrow=none;html=1;rounded=0;entryX=0;entryY=0.5;entryDx=0;entryDy=0;movable=1;resizable=1;rotatable=1;deletable=1;editable=1;locked=0;connectable=1;" edge="1" parent="1" target="Fw9Gq_leVeL55fq2eISz-328">
          <mxGeometry width="50" height="50" relative="1" as="geometry">
            <mxPoint x="537.5" y="830" as="sourcePoint" />
            <mxPoint x="637.5" y="910" as="targetPoint" />
          </mxGeometry>
        </mxCell>
        <mxCell id="Fw9Gq_leVeL55fq2eISz-339" value="" style="endArrow=none;html=1;rounded=0;entryX=0;entryY=0.5;entryDx=0;entryDy=0;movable=1;resizable=1;rotatable=1;deletable=1;editable=1;locked=0;connectable=1;" edge="1" parent="1" target="Fw9Gq_leVeL55fq2eISz-325">
          <mxGeometry width="50" height="50" relative="1" as="geometry">
            <mxPoint x="537.5" y="830" as="sourcePoint" />
            <mxPoint x="627.5" y="780" as="targetPoint" />
          </mxGeometry>
        </mxCell>
        <mxCell id="Fw9Gq_leVeL55fq2eISz-340" value="" style="endArrow=none;html=1;rounded=0;entryX=0;entryY=0.5;entryDx=0;entryDy=0;exitX=1;exitY=0.5;exitDx=0;exitDy=0;movable=1;resizable=1;rotatable=1;deletable=1;editable=1;locked=0;connectable=1;" edge="1" parent="1" source="Fw9Gq_leVeL55fq2eISz-323" target="Fw9Gq_leVeL55fq2eISz-325">
          <mxGeometry width="50" height="50" relative="1" as="geometry">
            <mxPoint x="617.5" y="800" as="sourcePoint" />
            <mxPoint x="677.5" y="800" as="targetPoint" />
          </mxGeometry>
        </mxCell>
        <mxCell id="Fw9Gq_leVeL55fq2eISz-341" value="" style="endArrow=none;html=1;rounded=0;entryX=0;entryY=0.5;entryDx=0;entryDy=0;movable=1;resizable=1;rotatable=1;deletable=1;editable=1;locked=0;connectable=1;" edge="1" parent="1" target="Fw9Gq_leVeL55fq2eISz-325">
          <mxGeometry width="50" height="50" relative="1" as="geometry">
            <mxPoint x="537.5" y="970" as="sourcePoint" />
            <mxPoint x="697.5" y="840" as="targetPoint" />
          </mxGeometry>
        </mxCell>
        <mxCell id="Fw9Gq_leVeL55fq2eISz-342" value="" style="endArrow=none;html=1;rounded=0;entryX=0;entryY=0.5;entryDx=0;entryDy=0;exitX=1;exitY=0.5;exitDx=0;exitDy=0;movable=1;resizable=1;rotatable=1;deletable=1;editable=1;locked=0;connectable=1;" edge="1" parent="1" source="Fw9Gq_leVeL55fq2eISz-321" target="Fw9Gq_leVeL55fq2eISz-326">
          <mxGeometry width="50" height="50" relative="1" as="geometry">
            <mxPoint x="527.5" y="790" as="sourcePoint" />
            <mxPoint x="587.5" y="790" as="targetPoint" />
          </mxGeometry>
        </mxCell>
        <mxCell id="Fw9Gq_leVeL55fq2eISz-343" value="" style="endArrow=none;html=1;rounded=0;exitX=1;exitY=0.5;exitDx=0;exitDy=0;movable=1;resizable=1;rotatable=1;deletable=1;editable=1;locked=0;connectable=1;" edge="1" parent="1" source="Fw9Gq_leVeL55fq2eISz-321">
          <mxGeometry width="50" height="50" relative="1" as="geometry">
            <mxPoint x="627.5" y="760" as="sourcePoint" />
            <mxPoint x="597.5" y="970" as="targetPoint" />
          </mxGeometry>
        </mxCell>
        <mxCell id="Fw9Gq_leVeL55fq2eISz-344" value="" style="ellipse;whiteSpace=wrap;html=1;aspect=fixed;fillColor=#FF0000;movable=1;resizable=1;rotatable=1;deletable=1;editable=1;locked=0;connectable=1;" vertex="1" parent="1">
          <mxGeometry x="597.5" y="750" width="20" height="20" as="geometry" />
        </mxCell>
        <mxCell id="Fw9Gq_leVeL55fq2eISz-345" value="" style="ellipse;whiteSpace=wrap;html=1;aspect=fixed;fillColor=#FF0000;movable=1;resizable=1;rotatable=1;deletable=1;editable=1;locked=0;connectable=1;" vertex="1" parent="1">
          <mxGeometry x="597.5" y="820" width="20" height="20" as="geometry" />
        </mxCell>
        <mxCell id="Fw9Gq_leVeL55fq2eISz-346" value="" style="ellipse;whiteSpace=wrap;html=1;aspect=fixed;fillColor=#FF0000;movable=1;resizable=1;rotatable=1;deletable=1;editable=1;locked=0;connectable=1;" vertex="1" parent="1">
          <mxGeometry x="597.5" y="880" width="20" height="20" as="geometry" />
        </mxCell>
        <mxCell id="Fw9Gq_leVeL55fq2eISz-347" value="" style="ellipse;whiteSpace=wrap;html=1;aspect=fixed;fillColor=#FF0000;movable=1;resizable=1;rotatable=1;deletable=1;editable=1;locked=0;connectable=1;" vertex="1" parent="1">
          <mxGeometry x="597.5" y="960" width="20" height="20" as="geometry" />
        </mxCell>
        <mxCell id="Fw9Gq_leVeL55fq2eISz-348" value="" style="ellipse;whiteSpace=wrap;html=1;aspect=fixed;fillColor=#FF0000;movable=1;resizable=1;rotatable=1;deletable=1;editable=1;locked=0;connectable=1;" vertex="1" parent="1">
          <mxGeometry x="517.5" y="750" width="20" height="20" as="geometry" />
        </mxCell>
        <mxCell id="Fw9Gq_leVeL55fq2eISz-349" value="" style="ellipse;whiteSpace=wrap;html=1;aspect=fixed;fillColor=#FF0000;movable=1;resizable=1;rotatable=1;deletable=1;editable=1;locked=0;connectable=1;" vertex="1" parent="1">
          <mxGeometry x="517.5" y="820" width="20" height="20" as="geometry" />
        </mxCell>
        <mxCell id="Fw9Gq_leVeL55fq2eISz-350" value="" style="ellipse;whiteSpace=wrap;html=1;aspect=fixed;fillColor=#FF0000;movable=1;resizable=1;rotatable=1;deletable=1;editable=1;locked=0;connectable=1;" vertex="1" parent="1">
          <mxGeometry x="517.5" y="880" width="20" height="20" as="geometry" />
        </mxCell>
        <mxCell id="Fw9Gq_leVeL55fq2eISz-351" value="" style="ellipse;whiteSpace=wrap;html=1;aspect=fixed;fillColor=#FF0000;movable=1;resizable=1;rotatable=1;deletable=1;editable=1;locked=0;connectable=1;" vertex="1" parent="1">
          <mxGeometry x="517.5" y="960" width="20" height="20" as="geometry" />
        </mxCell>
        <mxCell id="Fw9Gq_leVeL55fq2eISz-352" value="" style="endArrow=none;html=1;rounded=0;entryX=0;entryY=0.5;entryDx=0;entryDy=0;movable=1;resizable=1;rotatable=1;deletable=1;editable=1;locked=0;connectable=1;" edge="1" parent="1" target="Fw9Gq_leVeL55fq2eISz-346">
          <mxGeometry width="50" height="50" relative="1" as="geometry">
            <mxPoint x="537.5" y="760" as="sourcePoint" />
            <mxPoint x="597.5" y="890" as="targetPoint" />
          </mxGeometry>
        </mxCell>
        <mxCell id="Fw9Gq_leVeL55fq2eISz-353" value="V3/H2" style="text;html=1;align=center;verticalAlign=middle;whiteSpace=wrap;rounded=0;fontStyle=1;movable=1;resizable=1;rotatable=1;deletable=1;editable=1;locked=0;connectable=1;" vertex="1" parent="1">
          <mxGeometry x="502.5" y="730" width="50" height="20" as="geometry" />
        </mxCell>
        <mxCell id="Fw9Gq_leVeL55fq2eISz-354" value="H3/V4" style="text;html=1;align=center;verticalAlign=middle;whiteSpace=wrap;rounded=0;fontStyle=1;movable=1;resizable=1;rotatable=1;deletable=1;editable=1;locked=0;connectable=1;" vertex="1" parent="1">
          <mxGeometry x="580" y="730" width="50" height="20" as="geometry" />
        </mxCell>
        <mxCell id="Fw9Gq_leVeL55fq2eISz-355" value="RBM 3" style="text;html=1;align=center;verticalAlign=middle;whiteSpace=wrap;rounded=0;fontStyle=1" vertex="1" parent="1">
          <mxGeometry x="540" y="970" width="60" height="30" as="geometry" />
        </mxCell>
        <mxCell id="Fw9Gq_leVeL55fq2eISz-356" value="" style="rounded=1;whiteSpace=wrap;html=1;fillColor=#FFF2CC;movable=1;resizable=1;rotatable=1;deletable=1;editable=1;locked=0;connectable=1;" vertex="1" parent="1">
          <mxGeometry x="670" y="710" width="130" height="290" as="geometry" />
        </mxCell>
        <mxCell id="Fw9Gq_leVeL55fq2eISz-357" value="" style="ellipse;whiteSpace=wrap;html=1;aspect=fixed;fillColor=#FF0000;movable=1;resizable=1;rotatable=1;deletable=1;editable=1;locked=0;connectable=1;" vertex="1" parent="1">
          <mxGeometry x="687.5" y="750" width="20" height="20" as="geometry" />
        </mxCell>
        <mxCell id="Fw9Gq_leVeL55fq2eISz-358" value="" style="ellipse;whiteSpace=wrap;html=1;aspect=fixed;fillColor=#FF0000;movable=1;resizable=1;rotatable=1;deletable=1;editable=1;locked=0;connectable=1;" vertex="1" parent="1">
          <mxGeometry x="687.5" y="820" width="20" height="20" as="geometry" />
        </mxCell>
        <mxCell id="Fw9Gq_leVeL55fq2eISz-359" value="" style="ellipse;whiteSpace=wrap;html=1;aspect=fixed;fillColor=#FF0000;movable=1;resizable=1;rotatable=1;deletable=1;editable=1;locked=0;connectable=1;" vertex="1" parent="1">
          <mxGeometry x="687.5" y="880" width="20" height="20" as="geometry" />
        </mxCell>
        <mxCell id="Fw9Gq_leVeL55fq2eISz-360" value="" style="ellipse;whiteSpace=wrap;html=1;aspect=fixed;fillColor=#FF0000;movable=1;resizable=1;rotatable=1;deletable=1;editable=1;locked=0;connectable=1;" vertex="1" parent="1">
          <mxGeometry x="687.5" y="960" width="20" height="20" as="geometry" />
        </mxCell>
        <mxCell id="Fw9Gq_leVeL55fq2eISz-361" value="" style="ellipse;whiteSpace=wrap;html=1;aspect=fixed;fillColor=#FF0000;movable=1;resizable=1;rotatable=1;deletable=1;editable=1;locked=0;connectable=1;" vertex="1" parent="1">
          <mxGeometry x="767.5" y="750" width="20" height="20" as="geometry" />
        </mxCell>
        <mxCell id="Fw9Gq_leVeL55fq2eISz-362" value="" style="ellipse;whiteSpace=wrap;html=1;aspect=fixed;fillColor=#FF0000;movable=1;resizable=1;rotatable=1;deletable=1;editable=1;locked=0;connectable=1;" vertex="1" parent="1">
          <mxGeometry x="767.5" y="820" width="20" height="20" as="geometry" />
        </mxCell>
        <mxCell id="Fw9Gq_leVeL55fq2eISz-363" value="" style="ellipse;whiteSpace=wrap;html=1;aspect=fixed;fillColor=#FF0000;movable=1;resizable=1;rotatable=1;deletable=1;editable=1;locked=0;connectable=1;" vertex="1" parent="1">
          <mxGeometry x="767.5" y="880" width="20" height="20" as="geometry" />
        </mxCell>
        <mxCell id="Fw9Gq_leVeL55fq2eISz-364" value="" style="ellipse;whiteSpace=wrap;html=1;aspect=fixed;fillColor=#FF0000;movable=1;resizable=1;rotatable=1;deletable=1;editable=1;locked=0;connectable=1;" vertex="1" parent="1">
          <mxGeometry x="767.5" y="960" width="20" height="20" as="geometry" />
        </mxCell>
        <mxCell id="Fw9Gq_leVeL55fq2eISz-365" value="" style="endArrow=none;html=1;rounded=0;entryX=0;entryY=0.5;entryDx=0;entryDy=0;exitX=1;exitY=0.5;exitDx=0;exitDy=0;movable=1;resizable=1;rotatable=1;deletable=1;editable=1;locked=0;connectable=1;" edge="1" parent="1" source="Fw9Gq_leVeL55fq2eISz-357" target="Fw9Gq_leVeL55fq2eISz-361">
          <mxGeometry width="50" height="50" relative="1" as="geometry">
            <mxPoint x="617.5" y="820" as="sourcePoint" />
            <mxPoint x="667.5" y="770" as="targetPoint" />
          </mxGeometry>
        </mxCell>
        <mxCell id="Fw9Gq_leVeL55fq2eISz-366" value="" style="endArrow=none;html=1;rounded=0;entryX=0;entryY=0.5;entryDx=0;entryDy=0;movable=1;resizable=1;rotatable=1;deletable=1;editable=1;locked=0;connectable=1;" edge="1" parent="1" target="Fw9Gq_leVeL55fq2eISz-362">
          <mxGeometry width="50" height="50" relative="1" as="geometry">
            <mxPoint x="707.5" y="830" as="sourcePoint" />
            <mxPoint x="787.5" y="820" as="targetPoint" />
            <Array as="points">
              <mxPoint x="707.5" y="830" />
            </Array>
          </mxGeometry>
        </mxCell>
        <mxCell id="Fw9Gq_leVeL55fq2eISz-367" value="" style="endArrow=none;html=1;rounded=0;entryX=0;entryY=0.5;entryDx=0;entryDy=0;exitX=1;exitY=0.5;exitDx=0;exitDy=0;movable=1;resizable=1;rotatable=1;deletable=1;editable=1;locked=0;connectable=1;" edge="1" parent="1">
          <mxGeometry width="50" height="50" relative="1" as="geometry">
            <mxPoint x="707.5" y="890" as="sourcePoint" />
            <mxPoint x="767.5" y="890" as="targetPoint" />
          </mxGeometry>
        </mxCell>
        <mxCell id="Fw9Gq_leVeL55fq2eISz-368" value="" style="endArrow=none;html=1;rounded=0;entryX=0;entryY=0.5;entryDx=0;entryDy=0;exitX=1;exitY=0.5;exitDx=0;exitDy=0;movable=1;resizable=1;rotatable=1;deletable=1;editable=1;locked=0;connectable=1;" edge="1" parent="1">
          <mxGeometry width="50" height="50" relative="1" as="geometry">
            <mxPoint x="707.5" y="970" as="sourcePoint" />
            <mxPoint x="767.5" y="970" as="targetPoint" />
          </mxGeometry>
        </mxCell>
        <mxCell id="Fw9Gq_leVeL55fq2eISz-369" value="" style="endArrow=none;html=1;rounded=0;entryX=0;entryY=0.5;entryDx=0;entryDy=0;exitX=1;exitY=0.5;exitDx=0;exitDy=0;movable=1;resizable=1;rotatable=1;deletable=1;editable=1;locked=0;connectable=1;" edge="1" parent="1" source="Fw9Gq_leVeL55fq2eISz-360" target="Fw9Gq_leVeL55fq2eISz-363">
          <mxGeometry width="50" height="50" relative="1" as="geometry">
            <mxPoint x="707.5" y="930" as="sourcePoint" />
            <mxPoint x="767.5" y="930" as="targetPoint" />
          </mxGeometry>
        </mxCell>
        <mxCell id="Fw9Gq_leVeL55fq2eISz-370" value="" style="endArrow=none;html=1;rounded=0;entryX=0;entryY=0.5;entryDx=0;entryDy=0;movable=1;resizable=1;rotatable=1;deletable=1;editable=1;locked=0;connectable=1;" edge="1" parent="1" target="Fw9Gq_leVeL55fq2eISz-364">
          <mxGeometry width="50" height="50" relative="1" as="geometry">
            <mxPoint x="707.5" y="890" as="sourcePoint" />
            <mxPoint x="777.5" y="910" as="targetPoint" />
          </mxGeometry>
        </mxCell>
        <mxCell id="Fw9Gq_leVeL55fq2eISz-371" value="" style="endArrow=none;html=1;rounded=0;entryX=0;entryY=0.5;entryDx=0;entryDy=0;movable=1;resizable=1;rotatable=1;deletable=1;editable=1;locked=0;connectable=1;" edge="1" parent="1" target="Fw9Gq_leVeL55fq2eISz-362">
          <mxGeometry width="50" height="50" relative="1" as="geometry">
            <mxPoint x="707.5" y="970" as="sourcePoint" />
            <mxPoint x="777.5" y="860" as="targetPoint" />
          </mxGeometry>
        </mxCell>
        <mxCell id="Fw9Gq_leVeL55fq2eISz-372" value="" style="endArrow=none;html=1;rounded=0;entryX=0;entryY=0.5;entryDx=0;entryDy=0;movable=1;resizable=1;rotatable=1;deletable=1;editable=1;locked=0;connectable=1;" edge="1" parent="1" target="Fw9Gq_leVeL55fq2eISz-362">
          <mxGeometry width="50" height="50" relative="1" as="geometry">
            <mxPoint x="707.5" y="890" as="sourcePoint" />
            <mxPoint x="777.5" y="850" as="targetPoint" />
          </mxGeometry>
        </mxCell>
        <mxCell id="Fw9Gq_leVeL55fq2eISz-373" value="" style="endArrow=none;html=1;rounded=0;exitX=1;exitY=0.5;exitDx=0;exitDy=0;movable=1;resizable=1;rotatable=1;deletable=1;editable=1;locked=0;connectable=1;" edge="1" parent="1" source="Fw9Gq_leVeL55fq2eISz-358">
          <mxGeometry width="50" height="50" relative="1" as="geometry">
            <mxPoint x="707.5" y="850" as="sourcePoint" />
            <mxPoint x="767.5" y="890" as="targetPoint" />
          </mxGeometry>
        </mxCell>
        <mxCell id="Fw9Gq_leVeL55fq2eISz-374" value="" style="endArrow=none;html=1;rounded=0;entryX=0;entryY=0.5;entryDx=0;entryDy=0;movable=1;resizable=1;rotatable=1;deletable=1;editable=1;locked=0;connectable=1;" edge="1" parent="1" target="Fw9Gq_leVeL55fq2eISz-364">
          <mxGeometry width="50" height="50" relative="1" as="geometry">
            <mxPoint x="707.5" y="830" as="sourcePoint" />
            <mxPoint x="807.5" y="910" as="targetPoint" />
          </mxGeometry>
        </mxCell>
        <mxCell id="Fw9Gq_leVeL55fq2eISz-375" value="" style="endArrow=none;html=1;rounded=0;entryX=0;entryY=0.5;entryDx=0;entryDy=0;movable=1;resizable=1;rotatable=1;deletable=1;editable=1;locked=0;connectable=1;" edge="1" parent="1" target="Fw9Gq_leVeL55fq2eISz-361">
          <mxGeometry width="50" height="50" relative="1" as="geometry">
            <mxPoint x="707.5" y="830" as="sourcePoint" />
            <mxPoint x="797.5" y="780" as="targetPoint" />
          </mxGeometry>
        </mxCell>
        <mxCell id="Fw9Gq_leVeL55fq2eISz-376" value="" style="endArrow=none;html=1;rounded=0;entryX=0;entryY=0.5;entryDx=0;entryDy=0;exitX=1;exitY=0.5;exitDx=0;exitDy=0;movable=1;resizable=1;rotatable=1;deletable=1;editable=1;locked=0;connectable=1;" edge="1" parent="1" source="Fw9Gq_leVeL55fq2eISz-359" target="Fw9Gq_leVeL55fq2eISz-361">
          <mxGeometry width="50" height="50" relative="1" as="geometry">
            <mxPoint x="787.5" y="800" as="sourcePoint" />
            <mxPoint x="847.5" y="800" as="targetPoint" />
          </mxGeometry>
        </mxCell>
        <mxCell id="Fw9Gq_leVeL55fq2eISz-377" value="" style="endArrow=none;html=1;rounded=0;entryX=0;entryY=0.5;entryDx=0;entryDy=0;movable=1;resizable=1;rotatable=1;deletable=1;editable=1;locked=0;connectable=1;" edge="1" parent="1" target="Fw9Gq_leVeL55fq2eISz-361">
          <mxGeometry width="50" height="50" relative="1" as="geometry">
            <mxPoint x="707.5" y="970" as="sourcePoint" />
            <mxPoint x="867.5" y="840" as="targetPoint" />
          </mxGeometry>
        </mxCell>
        <mxCell id="Fw9Gq_leVeL55fq2eISz-378" value="" style="endArrow=none;html=1;rounded=0;entryX=0;entryY=0.5;entryDx=0;entryDy=0;exitX=1;exitY=0.5;exitDx=0;exitDy=0;movable=1;resizable=1;rotatable=1;deletable=1;editable=1;locked=0;connectable=1;" edge="1" parent="1" source="Fw9Gq_leVeL55fq2eISz-357" target="Fw9Gq_leVeL55fq2eISz-362">
          <mxGeometry width="50" height="50" relative="1" as="geometry">
            <mxPoint x="697.5" y="790" as="sourcePoint" />
            <mxPoint x="757.5" y="790" as="targetPoint" />
          </mxGeometry>
        </mxCell>
        <mxCell id="Fw9Gq_leVeL55fq2eISz-379" value="" style="endArrow=none;html=1;rounded=0;exitX=1;exitY=0.5;exitDx=0;exitDy=0;movable=1;resizable=1;rotatable=1;deletable=1;editable=1;locked=0;connectable=1;" edge="1" parent="1" source="Fw9Gq_leVeL55fq2eISz-357">
          <mxGeometry width="50" height="50" relative="1" as="geometry">
            <mxPoint x="797.5" y="760" as="sourcePoint" />
            <mxPoint x="767.5" y="970" as="targetPoint" />
          </mxGeometry>
        </mxCell>
        <mxCell id="Fw9Gq_leVeL55fq2eISz-380" value="" style="ellipse;whiteSpace=wrap;html=1;aspect=fixed;fillColor=#FF0000;movable=1;resizable=1;rotatable=1;deletable=1;editable=1;locked=0;connectable=1;" vertex="1" parent="1">
          <mxGeometry x="767.5" y="750" width="20" height="20" as="geometry" />
        </mxCell>
        <mxCell id="Fw9Gq_leVeL55fq2eISz-381" value="" style="ellipse;whiteSpace=wrap;html=1;aspect=fixed;fillColor=#FF0000;movable=1;resizable=1;rotatable=1;deletable=1;editable=1;locked=0;connectable=1;" vertex="1" parent="1">
          <mxGeometry x="767.5" y="820" width="20" height="20" as="geometry" />
        </mxCell>
        <mxCell id="Fw9Gq_leVeL55fq2eISz-382" value="" style="ellipse;whiteSpace=wrap;html=1;aspect=fixed;fillColor=#FF0000;movable=1;resizable=1;rotatable=1;deletable=1;editable=1;locked=0;connectable=1;" vertex="1" parent="1">
          <mxGeometry x="767.5" y="880" width="20" height="20" as="geometry" />
        </mxCell>
        <mxCell id="Fw9Gq_leVeL55fq2eISz-383" value="" style="ellipse;whiteSpace=wrap;html=1;aspect=fixed;fillColor=#FF0000;movable=1;resizable=1;rotatable=1;deletable=1;editable=1;locked=0;connectable=1;" vertex="1" parent="1">
          <mxGeometry x="767.5" y="960" width="20" height="20" as="geometry" />
        </mxCell>
        <mxCell id="Fw9Gq_leVeL55fq2eISz-384" value="" style="ellipse;whiteSpace=wrap;html=1;aspect=fixed;fillColor=#FF0000;movable=1;resizable=1;rotatable=1;deletable=1;editable=1;locked=0;connectable=1;" vertex="1" parent="1">
          <mxGeometry x="687.5" y="750" width="20" height="20" as="geometry" />
        </mxCell>
        <mxCell id="Fw9Gq_leVeL55fq2eISz-385" value="" style="ellipse;whiteSpace=wrap;html=1;aspect=fixed;fillColor=#FF0000;movable=1;resizable=1;rotatable=1;deletable=1;editable=1;locked=0;connectable=1;" vertex="1" parent="1">
          <mxGeometry x="687.5" y="820" width="20" height="20" as="geometry" />
        </mxCell>
        <mxCell id="Fw9Gq_leVeL55fq2eISz-386" value="" style="ellipse;whiteSpace=wrap;html=1;aspect=fixed;fillColor=#FF0000;movable=1;resizable=1;rotatable=1;deletable=1;editable=1;locked=0;connectable=1;" vertex="1" parent="1">
          <mxGeometry x="687.5" y="880" width="20" height="20" as="geometry" />
        </mxCell>
        <mxCell id="Fw9Gq_leVeL55fq2eISz-387" value="" style="ellipse;whiteSpace=wrap;html=1;aspect=fixed;fillColor=#FF0000;movable=1;resizable=1;rotatable=1;deletable=1;editable=1;locked=0;connectable=1;" vertex="1" parent="1">
          <mxGeometry x="687.5" y="960" width="20" height="20" as="geometry" />
        </mxCell>
        <mxCell id="Fw9Gq_leVeL55fq2eISz-388" value="" style="endArrow=none;html=1;rounded=0;entryX=0;entryY=0.5;entryDx=0;entryDy=0;movable=1;resizable=1;rotatable=1;deletable=1;editable=1;locked=0;connectable=1;" edge="1" parent="1" target="Fw9Gq_leVeL55fq2eISz-382">
          <mxGeometry width="50" height="50" relative="1" as="geometry">
            <mxPoint x="707.5" y="760" as="sourcePoint" />
            <mxPoint x="767.5" y="890" as="targetPoint" />
          </mxGeometry>
        </mxCell>
        <mxCell id="Fw9Gq_leVeL55fq2eISz-389" value="V4/H3" style="text;html=1;align=center;verticalAlign=middle;whiteSpace=wrap;rounded=0;fontStyle=1;movable=1;resizable=1;rotatable=1;deletable=1;editable=1;locked=0;connectable=1;" vertex="1" parent="1">
          <mxGeometry x="672.5" y="730" width="50" height="20" as="geometry" />
        </mxCell>
        <mxCell id="Fw9Gq_leVeL55fq2eISz-390" value="H4/V5" style="text;html=1;align=center;verticalAlign=middle;whiteSpace=wrap;rounded=0;fontStyle=1;movable=1;resizable=1;rotatable=1;deletable=1;editable=1;locked=0;connectable=1;" vertex="1" parent="1">
          <mxGeometry x="750" y="730" width="50" height="20" as="geometry" />
        </mxCell>
        <mxCell id="Fw9Gq_leVeL55fq2eISz-391" value="RBM 4" style="text;html=1;align=center;verticalAlign=middle;whiteSpace=wrap;rounded=0;fontStyle=1" vertex="1" parent="1">
          <mxGeometry x="710" y="970" width="60" height="30" as="geometry" />
        </mxCell>
        <mxCell id="Fw9Gq_leVeL55fq2eISz-392" value="" style="shape=flexArrow;endArrow=classic;html=1;rounded=0;entryX=0;entryY=0.483;entryDx=0;entryDy=0;entryPerimeter=0;fillColor=#000000;" edge="1" parent="1" target="Fw9Gq_leVeL55fq2eISz-356">
          <mxGeometry width="50" height="50" relative="1" as="geometry">
            <mxPoint x="630" y="850" as="sourcePoint" />
            <mxPoint x="660" y="850" as="targetPoint" />
          </mxGeometry>
        </mxCell>
        <mxCell id="Fw9Gq_leVeL55fq2eISz-393" value="" style="shape=flexArrow;endArrow=classic;html=1;rounded=0;entryX=0;entryY=0.483;entryDx=0;entryDy=0;entryPerimeter=0;fillColor=#000000;exitX=0.992;exitY=0.479;exitDx=0;exitDy=0;exitPerimeter=0;" edge="1" parent="1" source="Fw9Gq_leVeL55fq2eISz-282" target="Fw9Gq_leVeL55fq2eISz-320">
          <mxGeometry width="50" height="50" relative="1" as="geometry">
            <mxPoint x="470" y="850" as="sourcePoint" />
            <mxPoint x="500" y="850" as="targetPoint" />
          </mxGeometry>
        </mxCell>
        <mxCell id="Fw9Gq_leVeL55fq2eISz-396" value="" style="shape=flexArrow;endArrow=classic;html=1;rounded=0;entryX=-0.011;entryY=0.477;entryDx=0;entryDy=0;entryPerimeter=0;exitX=1;exitY=0.475;exitDx=0;exitDy=0;exitPerimeter=0;fillColor=#000000;" edge="1" parent="1" source="Fw9Gq_leVeL55fq2eISz-256" target="Fw9Gq_leVeL55fq2eISz-282">
          <mxGeometry width="50" height="50" relative="1" as="geometry">
            <mxPoint x="440" y="880" as="sourcePoint" />
            <mxPoint x="490" y="830" as="targetPoint" />
          </mxGeometry>
        </mxCell>
        <mxCell id="Fw9Gq_leVeL55fq2eISz-434" value="" style="group" vertex="1" connectable="0" parent="1">
          <mxGeometry x="10" y="330" width="360" height="110" as="geometry" />
        </mxCell>
        <mxCell id="Fw9Gq_leVeL55fq2eISz-398" value="&lt;i&gt;&lt;font face=&quot;Comic Sans MS&quot;&gt;v1&lt;/font&gt;&lt;/i&gt;" style="ellipse;whiteSpace=wrap;html=1;aspect=fixed;fillColor=#FFE599;" vertex="1" parent="Fw9Gq_leVeL55fq2eISz-434">
          <mxGeometry x="90" width="30" height="30" as="geometry" />
        </mxCell>
        <mxCell id="Fw9Gq_leVeL55fq2eISz-399" value="&lt;i&gt;&lt;font face=&quot;Comic Sans MS&quot;&gt;v2&lt;/font&gt;&lt;/i&gt;" style="ellipse;whiteSpace=wrap;html=1;aspect=fixed;fillColor=#FFE599;" vertex="1" parent="Fw9Gq_leVeL55fq2eISz-434">
          <mxGeometry x="150" width="30" height="30" as="geometry" />
        </mxCell>
        <mxCell id="Fw9Gq_leVeL55fq2eISz-400" value="&lt;i&gt;&lt;font face=&quot;Comic Sans MS&quot;&gt;v3&lt;/font&gt;&lt;/i&gt;" style="ellipse;whiteSpace=wrap;html=1;aspect=fixed;fillColor=#FFE599;" vertex="1" parent="Fw9Gq_leVeL55fq2eISz-434">
          <mxGeometry x="210" width="30" height="30" as="geometry" />
        </mxCell>
        <mxCell id="Fw9Gq_leVeL55fq2eISz-401" value="&lt;i&gt;&lt;font face=&quot;Comic Sans MS&quot;&gt;h1&lt;/font&gt;&lt;/i&gt;" style="ellipse;whiteSpace=wrap;html=1;aspect=fixed;fillColor=#F19C99;" vertex="1" parent="Fw9Gq_leVeL55fq2eISz-434">
          <mxGeometry x="70" y="80" width="30" height="30" as="geometry" />
        </mxCell>
        <mxCell id="Fw9Gq_leVeL55fq2eISz-402" value="&lt;i&gt;&lt;font face=&quot;Comic Sans MS&quot;&gt;h2&lt;/font&gt;&lt;/i&gt;" style="ellipse;whiteSpace=wrap;html=1;aspect=fixed;fillColor=#F19C99;" vertex="1" parent="Fw9Gq_leVeL55fq2eISz-434">
          <mxGeometry x="120" y="80" width="30" height="30" as="geometry" />
        </mxCell>
        <mxCell id="Fw9Gq_leVeL55fq2eISz-403" value="&lt;i&gt;&lt;font face=&quot;Comic Sans MS&quot;&gt;h3&lt;/font&gt;&lt;/i&gt;" style="ellipse;whiteSpace=wrap;html=1;aspect=fixed;fillColor=#F19C99;" vertex="1" parent="Fw9Gq_leVeL55fq2eISz-434">
          <mxGeometry x="180" y="80" width="30" height="30" as="geometry" />
        </mxCell>
        <mxCell id="Fw9Gq_leVeL55fq2eISz-404" value="&lt;i&gt;&lt;font face=&quot;Comic Sans MS&quot;&gt;h4&lt;/font&gt;&lt;/i&gt;" style="ellipse;whiteSpace=wrap;html=1;aspect=fixed;fillColor=#F19C99;" vertex="1" parent="Fw9Gq_leVeL55fq2eISz-434">
          <mxGeometry x="230" y="80" width="30" height="30" as="geometry" />
        </mxCell>
        <mxCell id="Fw9Gq_leVeL55fq2eISz-409" value="" style="endArrow=none;html=1;rounded=0;exitX=0.5;exitY=0;exitDx=0;exitDy=0;entryX=0.5;entryY=1;entryDx=0;entryDy=0;" edge="1" parent="Fw9Gq_leVeL55fq2eISz-434" source="Fw9Gq_leVeL55fq2eISz-401" target="Fw9Gq_leVeL55fq2eISz-398">
          <mxGeometry width="50" height="50" relative="1" as="geometry">
            <mxPoint x="90" y="70" as="sourcePoint" />
            <mxPoint x="140" y="20" as="targetPoint" />
          </mxGeometry>
        </mxCell>
        <mxCell id="Fw9Gq_leVeL55fq2eISz-410" value="" style="endArrow=none;html=1;rounded=0;exitX=0.5;exitY=0;exitDx=0;exitDy=0;entryX=0.5;entryY=1;entryDx=0;entryDy=0;" edge="1" parent="Fw9Gq_leVeL55fq2eISz-434" source="Fw9Gq_leVeL55fq2eISz-401" target="Fw9Gq_leVeL55fq2eISz-399">
          <mxGeometry width="50" height="50" relative="1" as="geometry">
            <mxPoint x="90" y="70" as="sourcePoint" />
            <mxPoint x="140" y="20" as="targetPoint" />
          </mxGeometry>
        </mxCell>
        <mxCell id="Fw9Gq_leVeL55fq2eISz-411" value="" style="endArrow=none;html=1;rounded=0;entryX=0.333;entryY=1;entryDx=0;entryDy=0;entryPerimeter=0;exitX=0.593;exitY=-0.033;exitDx=0;exitDy=0;exitPerimeter=0;" edge="1" parent="Fw9Gq_leVeL55fq2eISz-434" source="Fw9Gq_leVeL55fq2eISz-401" target="Fw9Gq_leVeL55fq2eISz-400">
          <mxGeometry width="50" height="50" relative="1" as="geometry">
            <mxPoint x="95" y="80" as="sourcePoint" />
            <mxPoint x="140" y="20" as="targetPoint" />
          </mxGeometry>
        </mxCell>
        <mxCell id="Fw9Gq_leVeL55fq2eISz-413" value="" style="endArrow=none;html=1;rounded=0;exitX=0.5;exitY=0;exitDx=0;exitDy=0;entryX=0.5;entryY=1;entryDx=0;entryDy=0;" edge="1" parent="Fw9Gq_leVeL55fq2eISz-434" source="Fw9Gq_leVeL55fq2eISz-402" target="Fw9Gq_leVeL55fq2eISz-398">
          <mxGeometry width="50" height="50" relative="1" as="geometry">
            <mxPoint x="160" y="90" as="sourcePoint" />
            <mxPoint x="210" y="40" as="targetPoint" />
          </mxGeometry>
        </mxCell>
        <mxCell id="Fw9Gq_leVeL55fq2eISz-414" value="" style="endArrow=none;html=1;rounded=0;exitX=0.5;exitY=0;exitDx=0;exitDy=0;entryX=0.5;entryY=1;entryDx=0;entryDy=0;" edge="1" parent="Fw9Gq_leVeL55fq2eISz-434" source="Fw9Gq_leVeL55fq2eISz-402" target="Fw9Gq_leVeL55fq2eISz-399">
          <mxGeometry width="50" height="50" relative="1" as="geometry">
            <mxPoint x="160" y="90" as="sourcePoint" />
            <mxPoint x="210" y="40" as="targetPoint" />
          </mxGeometry>
        </mxCell>
        <mxCell id="Fw9Gq_leVeL55fq2eISz-415" value="" style="endArrow=none;html=1;rounded=0;exitX=0.5;exitY=0;exitDx=0;exitDy=0;entryX=0.337;entryY=0.973;entryDx=0;entryDy=0;entryPerimeter=0;" edge="1" parent="Fw9Gq_leVeL55fq2eISz-434" source="Fw9Gq_leVeL55fq2eISz-402" target="Fw9Gq_leVeL55fq2eISz-400">
          <mxGeometry width="50" height="50" relative="1" as="geometry">
            <mxPoint x="160" y="90" as="sourcePoint" />
            <mxPoint x="230" y="30" as="targetPoint" />
          </mxGeometry>
        </mxCell>
        <mxCell id="Fw9Gq_leVeL55fq2eISz-417" value="" style="endArrow=none;html=1;rounded=0;exitX=0.5;exitY=0;exitDx=0;exitDy=0;entryX=0.5;entryY=1;entryDx=0;entryDy=0;" edge="1" parent="Fw9Gq_leVeL55fq2eISz-434" source="Fw9Gq_leVeL55fq2eISz-403" target="Fw9Gq_leVeL55fq2eISz-398">
          <mxGeometry width="50" height="50" relative="1" as="geometry">
            <mxPoint x="160" y="90" as="sourcePoint" />
            <mxPoint x="210" y="40" as="targetPoint" />
          </mxGeometry>
        </mxCell>
        <mxCell id="Fw9Gq_leVeL55fq2eISz-418" value="" style="endArrow=none;html=1;rounded=0;exitX=0.5;exitY=0;exitDx=0;exitDy=0;entryX=0.5;entryY=1;entryDx=0;entryDy=0;" edge="1" parent="Fw9Gq_leVeL55fq2eISz-434" source="Fw9Gq_leVeL55fq2eISz-403" target="Fw9Gq_leVeL55fq2eISz-399">
          <mxGeometry width="50" height="50" relative="1" as="geometry">
            <mxPoint x="305" y="110" as="sourcePoint" />
            <mxPoint x="220" y="60" as="targetPoint" />
          </mxGeometry>
        </mxCell>
        <mxCell id="Fw9Gq_leVeL55fq2eISz-419" value="" style="endArrow=none;html=1;rounded=0;exitX=0.5;exitY=0;exitDx=0;exitDy=0;" edge="1" parent="Fw9Gq_leVeL55fq2eISz-434" source="Fw9Gq_leVeL55fq2eISz-403">
          <mxGeometry width="50" height="50" relative="1" as="geometry">
            <mxPoint x="210" y="80" as="sourcePoint" />
            <mxPoint x="220" y="30" as="targetPoint" />
          </mxGeometry>
        </mxCell>
        <mxCell id="Fw9Gq_leVeL55fq2eISz-420" value="" style="endArrow=none;html=1;rounded=0;exitX=0.5;exitY=0;exitDx=0;exitDy=0;exitPerimeter=0;" edge="1" parent="Fw9Gq_leVeL55fq2eISz-434" source="Fw9Gq_leVeL55fq2eISz-404">
          <mxGeometry width="50" height="50" relative="1" as="geometry">
            <mxPoint x="345" y="200" as="sourcePoint" />
            <mxPoint x="220" y="30" as="targetPoint" />
          </mxGeometry>
        </mxCell>
        <mxCell id="Fw9Gq_leVeL55fq2eISz-421" value="" style="endArrow=none;html=1;rounded=0;exitX=0.5;exitY=0;exitDx=0;exitDy=0;entryX=0.5;entryY=1;entryDx=0;entryDy=0;" edge="1" parent="Fw9Gq_leVeL55fq2eISz-434" source="Fw9Gq_leVeL55fq2eISz-404" target="Fw9Gq_leVeL55fq2eISz-399">
          <mxGeometry width="50" height="50" relative="1" as="geometry">
            <mxPoint x="290" y="110" as="sourcePoint" />
            <mxPoint x="250" y="60" as="targetPoint" />
          </mxGeometry>
        </mxCell>
        <mxCell id="Fw9Gq_leVeL55fq2eISz-422" value="" style="endArrow=none;html=1;rounded=0;exitX=0.5;exitY=0;exitDx=0;exitDy=0;entryX=0.5;entryY=1;entryDx=0;entryDy=0;" edge="1" parent="Fw9Gq_leVeL55fq2eISz-434" source="Fw9Gq_leVeL55fq2eISz-404" target="Fw9Gq_leVeL55fq2eISz-398">
          <mxGeometry width="50" height="50" relative="1" as="geometry">
            <mxPoint x="280" y="140" as="sourcePoint" />
            <mxPoint x="240" y="90" as="targetPoint" />
          </mxGeometry>
        </mxCell>
        <mxCell id="Fw9Gq_leVeL55fq2eISz-424" value="&lt;font face=&quot;Comic Sans MS&quot;&gt;&lt;i&gt;Hidden Layer&lt;/i&gt;&lt;/font&gt;" style="rounded=1;whiteSpace=wrap;html=1;" vertex="1" parent="Fw9Gq_leVeL55fq2eISz-434">
          <mxGeometry x="270" y="85" width="90" height="25" as="geometry" />
        </mxCell>
        <mxCell id="Fw9Gq_leVeL55fq2eISz-426" value="&lt;font face=&quot;Comic Sans MS&quot;&gt;&lt;i&gt;Visible Layer&lt;/i&gt;&lt;/font&gt;" style="rounded=1;whiteSpace=wrap;html=1;" vertex="1" parent="Fw9Gq_leVeL55fq2eISz-434">
          <mxGeometry x="270" y="5" width="90" height="25" as="geometry" />
        </mxCell>
        <mxCell id="Fw9Gq_leVeL55fq2eISz-427" value="&lt;font face=&quot;Comic Sans MS&quot;&gt;&lt;i&gt;bias v&lt;/i&gt;&lt;/font&gt;" style="ellipse;whiteSpace=wrap;html=1;" vertex="1" parent="Fw9Gq_leVeL55fq2eISz-434">
          <mxGeometry x="10" width="50" height="20" as="geometry" />
        </mxCell>
        <mxCell id="Fw9Gq_leVeL55fq2eISz-429" value="&lt;font face=&quot;Comic Sans MS&quot;&gt;&lt;i&gt;bias h&lt;/i&gt;&lt;/font&gt;" style="ellipse;whiteSpace=wrap;html=1;" vertex="1" parent="Fw9Gq_leVeL55fq2eISz-434">
          <mxGeometry x="10" y="90" width="50" height="20" as="geometry" />
        </mxCell>
        <mxCell id="Fw9Gq_leVeL55fq2eISz-430" value="&lt;font face=&quot;Comic Sans MS&quot;&gt;&lt;i&gt;weights W&lt;/i&gt;&lt;/font&gt;" style="ellipse;whiteSpace=wrap;html=1;" vertex="1" parent="Fw9Gq_leVeL55fq2eISz-434">
          <mxGeometry y="40" width="70" height="30" as="geometry" />
        </mxCell>
      </root>
    </mxGraphModel>
  </diagram>
</mxfile>
